<?xml version="1.0" encoding="utf-8"?>
<!-- Generator: Adobe Illustrator 24.0.2, SVG Export Plug-In . SVG Version: 6.00 Build 0)  -->
<svg version="1.1" id="Capa_1" xmlns="http://www.w3.org/2000/svg" xmlns:xlink="http://www.w3.org/1999/xlink" x="0px" y="0px"
	 viewBox="0 0 150 50" style="enable-background:new 0 0 150 50;" xml:space="preserve">
<g>
	<g>
		<path d="M3.5,39.4c-1-1.1-1.5-4-1.5-9c0-5,0.8-9.8,2.4-14.5c0.6-2.4,1.6-4.5,2.9-6.4C7.5,9.3,7.7,9.2,8,9.2c0.1,0,0.3,0,0.5,0.1
			c0.3,0.1,0.6,0.2,0.9,0.4c0.3,0.2,0.5,0.5,0.5,0.7c0,0.5-0.5,1.8-1.4,3.8c-0.5,1.1-1,2.2-1.4,3.3C5.6,22,4.9,26.7,4.8,31.3
			c0,2.1,0.1,4.2,0.3,6.1c0,0,0.1,0.1,0.1,0.2c0,0.1,0,0.2,0.1,0.2c1.3-0.6,2.6-2.5,4-5.5c0.3-0.8,1.8-4,4.6-9.6
			c2.4-4.5,4.9-9,7.5-13.4C22.2,7.8,23,7,23.9,6.8c0.5,0,0.8,0.2,0.9,0.5c0,0.1,0,0.1-0.1,0.1C23.8,7.6,23,8.5,22.3,10l-0.4,0.7
			c-3.6,6-6.6,11.9-9.2,17.7c-1.9,4.2-3.3,7.2-4.3,8.7l-0.7,1.3c-0.3,0.6-0.5,1-0.6,1.1c-0.3,0.5-0.8,0.7-1.4,0.7
			C4.7,40.3,4.1,40,3.5,39.4z"/>
		<path d="M18.8,34.9c-1.1-1.1-1.7-2.4-1.7-3.9c0-1.8,0.3-3.5,0.9-5.2c0.6-1.7,1.6-3.1,2.9-4.2c0.9-0.8,1.8-1.2,2.9-1.2
			c1.5,0,2.3,0.6,2.3,1.8c0,1.2-0.6,2.4-1.8,3.5c-1,0.9-2.2,1.4-3.4,1.5c-0.6,1.7-0.8,3.1-0.8,4.2c0,0.9,0.1,1.6,0.3,2.3
			c0.2,0.6,0.6,0.9,1.3,0.9c0.5,0,1-0.1,1.6-0.4c1.5-0.7,3.1-2.2,4.9-4.5c0.6-0.6,1-1,1.1-1.3c0,0-0.1-0.1-0.1-0.3l0.2-0.1
			c0.1,0,0.2,0,0.3,0c0.1,0,0.2,0.1,0.3,0.1c0.1,0.1,0.2,0.2,0.2,0.3c0,0.2-0.1,0.5-0.3,0.8c-0.2,0.2-0.6,0.6-1.1,1.1
			c-1.9,2.3-3.8,4.1-5.9,5.2c-0.5,0.2-1,0.3-1.5,0.3C20.3,35.9,19.6,35.6,18.8,34.9z M25,23.1c0.2-0.5,0.2-1,0.2-1.4
			c0-0.5-0.1-0.7-0.4-0.7c-0.4,0-0.9,0.5-1.3,1.4l-0.9,1.5c-0.5,0.6-1,1.5-1.5,2.6C22.8,26,24.1,24.9,25,23.1z"/>
		<path d="M28.7,36.3c-0.5-0.3-0.7-0.6-0.8-0.9c0.2-2.9,0.6-5.8,1.4-8.7c0.9-3.2,1.6-5.1,2.2-5.9c0.3-0.3,0.7-0.5,1.2-0.5
			c0.8,0,1.2,0.5,1.2,1.6c0,0.6-0.3,1.6-0.9,3l-0.3,1c0.5-0.7,1-1.4,1.5-2c1.4-1.8,2.8-2.7,4.2-2.7c0.4,0,0.7,0,0.9,0.2
			c0.2,0.1,0.3,0.4,0.3,0.8c0,1-0.3,2.1-0.8,3.3c-0.6,1.2-1,2.5-1.3,3.7c0,0-0.1,0.1-0.1,0.3c0,0.1-0.1,0.3-0.2,0.6
			C37,30.3,37,30.6,37,30.9c0,0.2,0,0.3,0.1,0.4c0,0,0.1-0.1,0.2-0.1c0.1,0,0.3-0.1,0.4-0.2c0.2-0.1,0.3-0.2,0.5-0.2
			c0.2-0.1,0.3-0.1,0.3-0.1c0,0,0.3-0.2,0.9-0.5c1-0.7,1.9-1.4,2.7-2.3l0.1,0c0,0,0.2,0,0.3,0.1c0.1,0.1,0.2,0.1,0.2,0.2l0,0.1
			c-1.1,1.2-2,2-2.6,2.5c-1.2,1-2.3,1.6-3.3,1.6c-0.7,0-1.4-0.3-2-0.9c-0.4-0.5-0.6-1-0.6-1.7c0-0.7,0.2-1.6,0.7-2.8
			c0.3-1.3,1-2.7,1.9-4.3c-0.2,0.2-0.4,0.4-0.6,0.5c-1.4,1.3-2.6,2.8-3.5,4.6l-0.8,1.3c-0.5,2.4-0.9,4.8-1.1,7.3
			c-0.1,0.4-0.3,0.5-0.7,0.5C29.6,36.8,29.2,36.6,28.7,36.3z"/>
		<path d="M43,35.2c-1.2-0.9-1.9-2.1-1.9-3.7c0-2.4,0.9-4.6,2.6-6.5c0.1-0.1,0.2-0.2,0.3-0.2c0,0,0.1,0,0.2,0c0.1,0,0.2,0,0.3,0
			c0.3,0,0.6,0.1,1,0.4c-0.1-0.4-0.1-0.8-0.1-1.1c0-1,0.3-1.8,0.9-2.6c0.6-0.8,1.3-1.1,2.1-1.1c0.5,0,1,0.1,1.4,0.4
			c1.1,0.6,1.7,1.7,1.7,3.3c0,1.4-0.3,3.1-0.9,5c1.5,0,2.9-0.4,4.2-1.1c0,0,0.1,0,0.1,0l0.1,0c0.3,0.1,0.5,0.2,0.5,0.4l-0.1,0.1
			c-1.4,0.9-2.9,1.3-4.4,1.3l-0.7,0c-0.5,1.4-1,2.6-1.4,3.5c-0.9,1.8-2,2.7-3.4,2.7C44.7,36,43.9,35.8,43,35.2z M49.5,29.5
			c-1.5-0.5-2.7-1.4-3.5-2.8l-0.2,0.4c-1.2,2.1-1.8,4-1.8,5.8l0.1,0.6c0,0.4,0.2,0.7,0.6,0.7C46.9,34.2,48.5,32.7,49.5,29.5z
			 M50.7,23.9c0-1.8-0.7-2.7-2.1-2.7c-0.4,0-0.8,0.2-1.1,0.5c-0.7,0.8-1,1.7-1,2.8c0,1.8,0.8,3.2,2.4,4.2c0.2,0.1,0.5,0.2,0.8,0.3
			C50.4,26.5,50.7,24.8,50.7,23.9z"/>
	</g>
	<g>
		<path d="M57.5,40.6c-0.7-0.7-0.9-1.6-0.7-2.5c0-0.2,0.1-0.4,0.2-0.6c0.7-1.3,1.8-2.1,3.2-2.6c1.5-0.7,3.1-1.3,4.8-1.7
			c0.2-0.1,0.3-0.1,0.3-0.1l1.2-2.4c-0.9,0.8-1.9,1.1-3,0.8c-0.5-0.1-0.9-0.4-1.2-0.8c-0.7-0.7-0.9-1.6-0.6-2.7
			c0.1-0.5,0.3-1.1,0.6-1.7c0.2-0.8,0.8-1.8,1.7-3.2l0.1-0.2c0.7-1.2,1.5-1.7,2.4-1.6c0.5,0.2,0.7,0.6,0.6,1.3c-0.3,0.5-0.6,1-1,1.6
			c-0.3,0.3-0.5,0.6-0.7,0.9c-0.8,1.3-1.3,2.2-1.5,3c-0.2,0.4-0.3,0.9-0.4,1.5c-0.2,0.7,0,1.1,0.6,1.3c0.4,0.1,0.8,0.1,1.2-0.1
			c0.7-0.2,1.5-0.8,2.3-1.7c1.2-2.5,2.4-4.8,3.6-6.9c0.1-0.1,0.2-0.2,0.4-0.1c0,0,0.2,0.1,0.3,0.1s0.4,0.2,0.6,0.4
			c0.2,0.2,0.3,0.4,0.2,0.6c-1.1,2.7-2.4,5.4-3.9,8c-0.2,0.3-0.4,0.7-0.6,1.1c0.6-0.2,1.1-0.4,1.6-0.6c1.5-0.7,2.7-1.7,3.5-3.2
			c0,0,0.1,0,0.3,0c0.2,0.2,0.3,0.3,0.3,0.4c-1.2,1.9-3.3,3.3-6.2,4.3c-0.4,0.8-0.8,1.6-1.2,2.4c-0.6,1.3-1.3,2.5-2,3.7
			c-0.8,1.2-1.9,2-3.2,2.4c-0.7,0.2-1.4,0.2-2.1,0.1C58.7,41.5,58.1,41.1,57.5,40.6z M58.6,40.2l0.4,0c1.3-0.1,2.4-0.7,3.3-1.8
			c0.8-1.1,1.7-2.5,2.5-4.3c-0.8,0.3-1.6,0.5-2.4,0.9c-1.3,0.3-2.6,1-3.8,2.1c-0.4,0.4-0.7,0.9-0.8,1.4c-0.1,0.4-0.1,0.7,0,1.1
			c0.1,0.4,0.3,0.6,0.6,0.6L58.6,40.2z"/>
	</g>
	<g>
		<path d="M82.8,36c-0.4-0.9-0.6-1.9-0.6-3c0-1.4,0.3-3,0.9-4.8c0-0.1-0.1-0.1-0.2-0.2c-0.9-1.2-1.3-2.5-1.3-4c0-1.9,0.5-4,1.5-6.4
			c1.1-3.2,3.1-5.6,6.1-7.2c1-0.5,2-0.7,2.9-0.7c1.4,0,2.8,0.6,4,1.8c1,1.3,1.5,2.8,1.5,4.6c0,1.1-0.1,2.2-0.3,3.4
			c-0.9,5.6-2.5,10.4-4.9,14.5c-0.9,1.7-1.7,3-2.6,3.9c-0.8,0.6-1.7,0.9-2.6,0.9C85.3,38.8,83.8,37.9,82.8,36z M87.1,36.9L87.1,36.9
			c4.3-1.2,7.4-6.7,9.3-16.6c0.4-1.7,0.6-3.2,0.6-4.4c0-2.3-0.7-3.9-2.2-5c-0.5-0.4-1.1-0.6-1.8-0.6c-1.3,0-2.5,0.6-3.6,1.9
			c-1.6,1.9-2.8,4-3.7,6.4c-1,2.3-1.5,4.3-1.5,6.1l0,0.9c1.7-3.3,3.4-5.4,5-6.2l0.3-0.1c0.1,0,0.3,0,0.5,0.1
			c0.2,0.1,0.4,0.2,0.6,0.3c0.2,0.1,0.3,0.3,0.3,0.4l0,0.2c-0.3,0.9-0.9,1.8-1.6,2.6l-1,1.2c-0.4,0.6-1.2,2.1-2.3,4.3l0.7,0.1
			c0.6,0,1.3-0.1,2-0.4l1-0.2c0-0.1,0.1-0.1,0.3-0.1c0.3,0,0.7,0.1,1,0.2c0.7,0.2,1.1,0.5,1.1,0.9L92,29c-0.7,0.7-2,1.1-3.9,1.1
			c-1,0-1.9-0.2-2.7-0.5c-0.5,1.3-0.7,2.6-0.7,3.9c0,2.3,0.5,3.5,1.4,3.5C86.5,37.1,86.8,37,87.1,36.9z"/>
		<path d="M96.2,42.6c-0.9-0.5-1.4-1.2-1.4-2.1c0-0.4,0.1-1,0.4-1.6c0.8-2,2.4-3.5,4.6-4.5c-0.2-1.3-0.5-2.6-1-3.9
			c-0.3-0.8-0.5-1.7-0.5-2.5c0-0.8,0.2-1.7,0.5-2.5c0.7-1.5,1.9-2.6,3.6-3.1l0.5-0.1c0.3,0,0.6,0.1,1,0.2c0.6,0.2,0.9,0.7,0.9,1.5
			c0,1.2-0.6,2.4-1.7,3.4l-0.1,0c-0.2,0-0.3-0.1-0.3-0.2l0,0c1-1.3,1.4-2.5,1.4-3.6c0-0.5-0.3-0.8-0.8-1c-0.2,0-0.4,0.1-0.5,0.2
			c-0.6,0.3-1,0.8-1.2,1.6c0,0-0.1,0-0.1,0.1c-0.5,1.1-0.7,2.3-0.7,3.4c0,1,0.2,2.2,0.7,3.6l0.6,1.8c2.2-0.8,3.9-1.8,5.1-2.9
			c0.7-0.7,1.2-1.3,1.3-1.7c-0.1-0.1-0.1-0.1-0.1-0.2l0.1-0.1c0-0.1,0.1-0.2,0.2-0.2c0.1,0,0.2,0,0.4,0.1c0.1,0.1,0.2,0.2,0.2,0.3
			c0,0.2-0.1,0.4-0.3,0.7c-1.1,1.7-3.2,3.1-6.3,4.2l-0.5,0.2c0.2,1.1,0.4,2.2,0.4,3.3c0,1.3-0.3,2.6-0.8,3.8c-0.8,1.4-2,2-3.5,2
			C97.5,43.2,96.8,43,96.2,42.6z M98.3,41.1c1.1-0.9,1.7-2.4,1.7-4.6c0-0.5-0.1-1-0.1-1.4c-1.4,0.7-2.5,1.7-3.4,3
			c-0.4,0.6-0.6,1.3-0.6,1.9c0,0.4,0.1,0.8,0.4,1.1c0.3,0.3,0.6,0.4,0.9,0.4C97.4,41.6,97.8,41.4,98.3,41.1z"/>
		<path d="M110.5,35.6c-1.5-0.7-2.3-1.8-2.5-3.4c0-2.2,0.2-4.1,0.6-5.6c0.3-1.8,1.1-3.4,2.3-4.8c0.1-0.1,0.2-0.1,0.4-0.1
			c0.1,0,0.3,0,0.6,0.1c0.3,0.1,0.6,0.2,0.8,0.4c0.2,0.2,0.4,0.4,0.4,0.6c0,0.1-0.1,0.4-0.4,0.9c-0.6,1-1,2-1.4,3.1
			c-0.6,2.1-0.9,3.8-0.9,5.4c0,1.4,0.3,2.2,1.1,2.2c0.9,0,2-1.1,3.1-3.4c0.2-0.3,0.6-1,1.3-2.3c-1-0.8-1.5-1.9-1.5-3.1
			c0-0.9,0.3-1.8,0.8-2.7c0.3-0.6,0.9-0.9,1.5-1c1,0.1,1.5,0.8,1.5,2.2c0,1.4-0.5,3-1.5,4.6c0.6,0.2,1.2,0.4,1.8,0.4
			c0.7,0,1.3,0,1.9-0.1c0.1,0,0.2,0,0.2,0.1c0.1,0.1,0.2,0.1,0.3,0.2c0.1,0.1,0.1,0.1,0.1,0.2c0,0.1-0.5,0.2-1.6,0.2
			c-1,0-2-0.2-2.9-0.5l-0.6,1.3c-0.6,1.4-1.3,2.7-2.1,3.9c-0.7,1-1.5,1.6-2.2,1.6C111.3,35.9,110.9,35.8,110.5,35.6z M117.4,24.2
			c0-1.1-0.2-1.7-0.6-1.7c-0.2,0-0.5,0.2-0.7,0.6c-0.6,0.8-0.9,1.7-0.9,2.8c0,1,0.2,1.8,0.8,2.3C116.8,26.6,117.3,25.2,117.4,24.2z"
			/>
		<path d="M129.7,35.3c-0.5,0-1.1-0.5-1.7-1.4c-0.4-0.7-0.6-1.4-0.6-2.2c0-0.4,0-0.8,0.1-1.2c-0.3,0.3-0.5,0.7-0.7,1
			c-0.8,1.3-1.7,2.3-2.8,3.2c-0.4,0.3-0.8,0.4-1.2,0.4c-0.8,0-1.6-0.4-2.3-1.1c-0.5-0.7-0.8-1.6-0.8-2.7c0-2.3,0.6-4.4,1.9-6.3
			c1-1.7,2.5-2.6,4.6-2.8c0.7,0,1.4,0.2,2,0.7c0.6,0.5,1,1.1,1.2,1.9c1-2,2.2-3,3.5-3.1c0.2,0,0.3,0,0.5,0.1
			c0.2,0.1,0.3,0.2,0.4,0.4c0.1,0.2,0.1,0.3,0.1,0.5c0,0.3-0.2,0.8-0.7,1.3c-0.8,1.2-1.3,2.1-1.6,2.6c-1.1,2.1-1.7,4.2-1.7,6.1
			c0,0.6,0.1,1,0.3,1.3c0.1,0.3,0.2,0.5,0.3,0.6c0.3,0,0.6-0.1,1.2-0.4c0.6-0.3,1-0.7,1.4-1.1c1-1,1.9-2,2.7-3.1
			c0.3-0.6,0.7-1,1.1-1.4c0.3,0,0.5,0.1,0.5,0.2c-0.2,0.8-0.7,1.7-1.7,2.8c-0.9,1.1-1.8,2.1-2.7,2.9c-0.7,0.6-1.5,0.9-2.4,0.9
			C130.5,35.4,130.2,35.4,129.7,35.3z M124.1,33.4c0-0.1,0.1-0.1,0.2-0.2c1.6-1.8,3-3.6,4-5.4l0.3-0.9c0.2-0.5,0.3-1,0.3-1.5
			c0-0.2,0-0.5-0.1-0.8c-0.1-0.4-0.2-0.7-0.5-1c-0.3-0.3-0.6-0.5-0.9-0.5c-0.8,0-1.6,0.7-2.6,2.1c-1.8,2-2.6,4.3-2.6,6.9
			c0,0.6,0.1,1.1,0.2,1.7l0.1,0.1c0.1,0.3,0.2,0.4,0.3,0.4C123,34.3,123.4,34,124.1,33.4z"/>
		<path d="M138.3,34.2c-1.2-1.3-1.8-2.7-1.8-4.5v-0.6c0-2,0.3-4,0.8-6c1.1-4.5,3.2-7.9,6.1-10c0.8-0.6,1.5-0.9,2.3-0.9
			c0.5,0,1,0.2,1.4,0.7c0.3,0.5,0.5,1.1,0.5,1.7c0,1-0.3,2.1-0.9,3.4c-1.8,3.8-4.2,6.3-7.2,7.4c-0.3,1.5-0.5,2.9-0.5,4.1
			c0,3,0.7,4.5,2.1,4.5c2,0,4.1-1.8,6.2-5.3c0.1-0.1,0.1-0.1,0.2-0.1c0,0,0.1,0,0.2,0c0.1,0,0.2,0.1,0.2,0.1C147.9,29,148,29,148,29
			l0,0.1c-1.9,3.2-3.9,5.3-5.9,6c-0.4,0.2-0.8,0.2-1.1,0.2C140.1,35.4,139.2,35,138.3,34.2z M145.7,18.7c0.9-1.5,1.3-2.8,1.3-4
			c0-1-0.2-1.5-0.8-1.5c-0.6,0-1,0.4-1.5,1.2c-2.8,3.7-4.5,7.3-5.2,10.7C142.3,23.5,144.4,21.4,145.7,18.7z"/>
	</g>
</g>
</svg>
