<?xml version="1.0" encoding="utf-8"?>
<!-- Generator: Adobe Illustrator 24.0.2, SVG Export Plug-In . SVG Version: 6.00 Build 0)  -->
<svg version="1.1" id="Capa_1" xmlns="http://www.w3.org/2000/svg" xmlns:xlink="http://www.w3.org/1999/xlink" x="0px" y="0px"
	 viewBox="0 0 200 27.6" style="enable-background:new 0 0 200 27.6;" xml:space="preserve">
<style type="text/css">
	.st0{fill:#575756;}
</style>
<g>
	<path class="st0" d="M100.9,22.6c0-0.2,0-0.3,0-0.4c0-2.4,0-4.8,0-7.1c0-0.5-0.1-1.1-0.2-1.6c-0.4-1.3-1.7-1.8-2.9-1.2
		c-0.7,0.3-1.1,0.9-1.4,1.5c-0.1,0.1-0.1,0.3-0.1,0.5c0,2.6,0,5.3,0,7.9c0,0.1,0,0.2,0,0.4c-0.3,0-0.7,0-1,0c-0.6,0-1.2,0-1.7,0
		c-0.2,0-0.3-0.1-0.3-0.3c0-4.2,0-8.3,0-12.5c0-0.1,0-0.3,0.2-0.3c0.8,0,1.7,0,2.6,0c0.1,0.6,0.1,1.1,0.2,1.7c0.8-1.1,1.8-2.1,3.2-2
		c1.4,0,2.5,0.7,3.2,1.9c0.5-0.4,0.9-0.8,1.5-1.2c1.7-1.1,4.2-0.9,5.7,0.4c0.9,0.8,1.4,1.9,1.5,3.2c0.1,0.5,0.1,1,0.1,1.5
		c0,2.4,0,4.8,0,7.1c0,0.3-0.1,0.4-0.4,0.4c-0.7,0-1.5,0-2.2,0c-0.1,0-0.2,0-0.4,0c0-0.1,0-0.3,0-0.4c0-2.4,0-4.8,0-7.2
		c0-0.5-0.1-1-0.2-1.4c-0.5-1.9-2.6-1.8-3.5-0.9c-0.6,0.6-0.9,1.2-0.9,2c0,2.5,0,5,0,7.5c0,0.4,0,0.4-0.4,0.4
		C102.6,22.6,101.8,22.6,100.9,22.6z"/>
	<path class="st0" d="M68.2,14.8c0.2-1.5-0.1-2.4-2-2.8c-1.3-0.3-2.6-0.1-3.8,0.5c-0.2,0.1-0.4,0.2-0.6,0.3c0-0.2,0-0.4,0-0.6
		c0-0.6,0-1.3,0-1.9c0-0.1,0.1-0.3,0.1-0.3c1.8-0.7,3.7-1,5.7-0.5c1.4,0.4,2.6,1.2,3.2,2.6c0.2,0.5,0.4,1.2,0.4,1.7
		c0,2.8,0,5.7,0,8.5c0,0,0,0.1,0,0.1c-0.9,0-1.7,0-2.6,0c-0.1-0.5-0.1-1-0.2-1.5c-0.1,0.1-0.2,0.2-0.2,0.2c-0.8,1-1.9,1.6-3.2,1.6
		c-0.7,0-1.4,0-2-0.2c-1.6-0.4-2.6-1.5-2.7-3.1c-0.1-0.6-0.1-1.2,0-1.8c0.3-1.4,1.2-2.3,2.5-2.8c1.5-0.6,3-0.6,4.5-0.3
		C67.6,14.7,67.9,14.8,68.2,14.8z M68.2,17c-1-0.3-1.9-0.4-2.9-0.4c-0.4,0-0.8,0.1-1.2,0.3c-0.7,0.3-1,1-0.9,1.9
		c0.1,0.7,0.5,1.2,1.3,1.3C66.6,20.7,68.5,19.2,68.2,17z"/>
	<path class="st0" d="M164.5,21c-0.1,0.1-0.2,0.2-0.2,0.3c-1,1.2-2.2,1.7-3.7,1.6c-0.5,0-1.1-0.1-1.6-0.2c-1.5-0.4-2.4-1.5-2.6-3
		c-0.1-1-0.1-2,0.4-2.8c0.7-1.2,1.7-1.8,3-2.1c1.4-0.3,2.8-0.2,4.1,0.1c0.1,0,0.1,0,0.2,0c0.1,0,0.1,0,0.2,0c0.2-1.3,0-2.2-1.4-2.6
		c-1.4-0.5-2.7-0.4-4.1,0.2c-0.3,0.1-0.6,0.3-0.9,0.4c0-0.9,0-1.7,0-2.6c0-0.1,0.1-0.1,0.1-0.2c2-0.7,4-1.1,6.1-0.4
		c2.1,0.7,3.3,2.3,3.3,4.5c0,2.7,0,5.4,0,8.2c0,0.1,0,0.2,0,0.3c-0.9,0-1.7,0-2.6,0C164.6,22,164.6,21.6,164.5,21z M161.3,20.3
		c1.7,0,3-1.2,3-2.7c0-0.7,0.1-0.5-0.5-0.7c-1-0.2-2-0.4-3-0.2c-1,0.2-1.6,0.9-1.5,1.9c0,1,0.5,1.5,1.5,1.7
		C161,20.3,161.1,20.3,161.3,20.3z"/>
	<path class="st0" d="M86.7,14.8c0-0.4,0-0.8,0-1.1c-0.1-0.6-0.4-1-0.9-1.3c-1.4-0.7-2.8-0.7-4.2-0.2c-0.4,0.1-0.8,0.3-1.3,0.5
		c0-0.9,0-1.8,0-2.7c2.2-0.8,4.5-1.2,6.7-0.2c1.7,0.8,2.7,2.2,2.7,4.1c0,2.8,0,5.6,0,8.5c0,0,0,0.1,0,0.1c-0.1,0-0.2,0-0.2,0
		c-0.7,0-1.4,0-2.1,0c-0.2,0-0.3-0.1-0.3-0.3c0-0.4-0.1-0.8-0.1-1.2c-0.1,0-0.1,0.1-0.1,0.1c-1,1.3-2.3,1.8-3.9,1.7
		c-0.7,0-1.5-0.1-2.2-0.5c-1.3-0.6-1.8-1.6-2-2.9c-0.1-0.8-0.1-1.7,0.3-2.4c0.6-1.3,1.6-1.9,2.9-2.3c1.5-0.4,2.9-0.3,4.4,0
		c0.1,0,0.1,0,0.2,0C86.5,14.8,86.6,14.8,86.7,14.8z M84.2,16.6c-0.6,0.1-1.2,0.1-1.7,0.4c-0.7,0.4-0.9,1.1-0.8,1.9
		c0.1,0.7,0.4,1.1,1,1.3c2,0.6,4.1-0.8,4-2.9c0-0.2-0.1-0.3-0.2-0.3C85.7,16.8,84.9,16.7,84.2,16.6z"/>
	<path class="st0" d="M45.1,16.7c-2.9,0-5.8,0-8.7,0c0,1.8,1.5,3.5,3.3,3.5c1.3,0,2.6-0.3,3.8-0.8c0.1,0,0.2-0.1,0.3-0.1
		c0,1,0,1.9,0,2.8c0,0.1-0.1,0.1-0.1,0.2c-2.1,0.7-4.2,1-6.4,0.3c-1.8-0.6-3-1.9-3.6-3.6C33,16.7,33,14.5,34,12.5
		c1.1-2.1,2.9-3.2,5.2-3.3c3-0.1,5.2,1.7,5.8,4.8C45.1,14.8,45.2,15.7,45.1,16.7z M42.2,14.5c-0.1-1.4-1-2.7-2.7-2.8
		c-1.8,0-2.9,1.5-3,2.8C38.4,14.5,40.3,14.5,42.2,14.5z"/>
	<path class="st0" d="M126.1,16.7c-2.9,0-5.8,0-8.7,0c0.1,1.8,1.3,3.5,3.3,3.5c1.3,0,2.6-0.3,3.8-0.8c0.1-0.1,0.2-0.1,0.4-0.2
		c0,0.9,0,1.9,0,2.8c0,0.1-0.2,0.2-0.3,0.2c-1.1,0.4-2.3,0.6-3.5,0.6c-2.3,0.1-4.3-0.7-5.6-2.7c-1-1.4-1.3-3.1-1.3-4.8
		c0.1-1.5,0.5-2.9,1.5-4c1.3-1.6,3.1-2.2,5.1-2.1c2.6,0.2,4.3,1.7,5,4.4c0.2,0.9,0.3,1.9,0.2,2.8C126.1,16.5,126.1,16.6,126.1,16.7z
		 M117.5,14.5c1.9,0,3.9,0,5.8,0c-0.2-1.7-1.2-2.7-2.7-2.7C119,11.7,117.8,12.8,117.5,14.5z"/>
	<path class="st0" d="M7.6,22.5c-1,0-2,0-3,0c0-4.3,0-8.6,0-13c0.9,0,1.8,0,2.7,0c0.1,0.5,0.1,1,0.2,1.5c0.2-0.2,0.4-0.4,0.6-0.5
		c0.6-0.6,1.3-1.1,2.2-1.2c2.4-0.3,4.8,0.7,5.4,3.6c0.1,0.6,0.2,1.3,0.2,2c0,2.4,0,4.8,0,7.3c0,0.1,0,0.3,0,0.4c-1,0-2,0-3,0
		c0-0.1,0-0.3,0-0.4c0-2.3,0-4.7,0-7c0-0.4-0.1-0.9-0.2-1.3c-0.4-1.8-2.2-2.1-3.3-1.6c-0.7,0.3-1.3,0.8-1.8,1.4
		c-0.1,0.1-0.1,0.3-0.1,0.4c0,2.7,0,5.4,0,8.1C7.6,22.2,7.6,22.4,7.6,22.5z"/>
	<path class="st0" d="M173.1,9.5c0.1,0.5,0.1,1,0.2,1.6c0.1-0.1,0.2-0.2,0.3-0.3c0.7-0.7,1.4-1.3,2.4-1.5c2.5-0.6,5,0.9,5.6,3.4
		c0.2,0.7,0.2,1.4,0.3,2.1c0,2.5,0,4.9,0,7.4c0,0.1,0,0.2,0,0.3c-0.5,0-0.9,0-1.3,0c-0.4,0-0.9,0-1.3,0c-0.3,0-0.3-0.1-0.3-0.3
		c0-1.6,0-3.2,0-4.8c0-0.8,0-1.7,0-2.5c0-0.4-0.1-0.8-0.2-1.2c-0.4-1.4-1.9-2.1-3.2-1.5c-0.7,0.3-1.3,0.8-1.8,1.4
		c-0.1,0.1-0.1,0.3-0.1,0.4c0,2.7,0,5.4,0,8.1c0,0.1,0,0.3,0,0.4c-1,0-2,0-3,0c0-4.3,0-8.6,0-13C171.3,9.5,172.2,9.5,173.1,9.5z"/>
	<path class="st0" d="M27.4,9.5c1,0,2,0,3,0c0,0.1,0,0.3,0,0.4c0,2.5,0,4.9,0,7.4c0,1.6-0.5,3-1.6,4.1c-0.7,0.7-1.5,1.1-2.4,1.3
		c-1.2,0.3-2.3,0.3-3.5-0.1c-2.2-0.6-3.4-2.1-3.7-4.3c-0.1-0.5-0.1-1.1-0.1-1.6c0-2.3,0-4.6,0-6.9c0-0.1,0-0.2,0-0.4c1,0,2,0,3,0
		c0,0.1,0,0.2,0,0.4c0,2.4,0,4.8,0,7.2c0,0.8,0.2,1.5,0.7,2.1c0.7,0.8,1.7,0.9,2.7,0.7c1-0.2,1.5-1,1.8-1.9c0.1-0.4,0.1-0.8,0.1-1.2
		c0-2.3,0-4.6,0-6.9C27.4,9.8,27.4,9.7,27.4,9.5z"/>
	<path class="st0" d="M59.5,9.5c-0.3,0.6-0.5,1.1-0.7,1.6c-1.7,3.7-3.3,7.4-5,11.1c-0.1,0.2-0.2,0.3-0.5,0.3c-0.4,0-0.7,0-1.1,0
		c-0.3,0-0.4-0.1-0.5-0.3c-1.7-3.9-3.5-7.7-5.2-11.6c-0.2-0.3-0.3-0.7-0.5-1.1c0.1,0,0.2,0,0.2,0c0.9,0,1.9,0,2.8,0
		c0.1,0,0.3,0.1,0.3,0.2c1.1,2.7,2.3,5.2,3.2,8c0,0.1,0.1,0.2,0.2,0.3c0.1-0.1,0.2-0.2,0.2-0.3c0.5-2,1.5-3.8,2.2-5.7
		c0.3-0.7,0.6-1.5,1-2.2c0.1-0.2,0.2-0.3,0.4-0.3C57.5,9.5,58.5,9.5,59.5,9.5z"/>
	<path class="st0" d="M154,13.6c-0.5-0.3-0.9-0.7-1.3-1c-2-1.2-4.2-0.4-5,1.8c-0.6,1.7-0.4,3.3,0.9,4.7c1,1.1,2.2,1.3,3.6,0.8
		c0.7-0.3,1.3-0.7,1.9-1.1c0,0,0,0.1,0,0.1c0,1,0,1.9,0,2.9c0,0.2-0.1,0.3-0.2,0.4c-4,2-8.6-0.3-9.4-4.7c-0.4-2.3,0-4.3,1.6-6.1
		c1.9-2.2,5.3-2.8,7.9-1.4c0.1,0,0.2,0.1,0.2,0.2C154,11.3,154,12.4,154,13.6z"/>
	<path class="st0" d="M195.4,18.4c0,1.4,0,2.7,0,4.1c-0.4,0-0.8,0-1.3,0c-0.4,0-0.7,0-1.1,0c-0.2,0-0.3-0.1-0.3-0.3
		c0-0.4-0.1-0.8-0.1-1.2c-0.1,0.1-0.1,0.1-0.1,0.1c-1,1.3-2.3,1.8-3.9,1.7c-0.8,0-1.6-0.1-2.3-0.5c-1.2-0.6-1.7-1.5-1.9-2.8
		c-0.2-1.2-0.1-2.3,0.7-3.3c0.8-1,1.8-1.5,3-1.7c1.3-0.3,2.5-0.1,3.8,0.1c1.1,0.2,2.2,0.3,3.3,0.2c0,0,0.1,0,0.1,0
		c0,0.6,0,1.2,0,1.7c0,0.1-0.1,0.2-0.2,0.2c-0.9,0.3-1.7,0.3-2.6,0.1c-0.8-0.1-1.7-0.3-2.5-0.4c-0.6-0.1-1.2,0-1.8,0.3
		c-0.7,0.4-1,1.2-0.8,2.1c0.2,0.7,0.7,1.2,1.6,1.2c1.4,0.1,2.5-0.4,3.2-1.6c0-0.1,0.2-0.1,0.2-0.1C193.4,18.7,194.3,18.7,195.4,18.4
		C195.3,18.4,195.3,18.4,195.4,18.4z"/>
	<path class="st0" d="M129,9.5c0.8,0,1.7,0,2.5,0c0.1,0,0.2,0.2,0.2,0.2c0.1,0.4,0.1,0.9,0.2,1.4c1-1.6,2.5-1.8,4.2-1.8c0,1,0,2,0,3
		c-0.4,0-0.8,0-1.2,0c-1.7,0.1-2.6,1-2.8,2.7c-0.1,0.4-0.1,0.8-0.1,1.1c0,2,0,4,0,6c0,0.3-0.1,0.3-0.3,0.3c-0.8,0-1.6,0-2.4,0
		c-0.2,0-0.3,0-0.3-0.3c0-4.2,0-8.4,0-12.5C129,9.7,129,9.6,129,9.5z"/>
	<path class="st0" d="M141.6,22.6c-0.4,0-0.8,0-1.2,0c-0.5,0-1,0-1.5,0c-0.2,0-0.3-0.1-0.3-0.3c0-0.1,0-0.2,0-0.2
		c0-3.4,0-6.9,0-10.3c0-0.1,0-0.3,0-0.4c1,0,2,0,3,0C141.6,15,141.6,18.7,141.6,22.6z"/>
	<path class="st0" d="M185.9,12.8c0-0.9,0-1.7,0-2.5c0-0.1,0.1-0.2,0.1-0.2c1.9-0.7,3.9-1.1,5.9-0.4c1.6,0.5,2.8,1.5,3.3,3.2
		c0.1,0.2,0.1,0.4,0.1,0.7c-0.4,0-0.8,0.1-1.2,0.1c-0.5,0-1.1-0.1-1.6-0.1c-0.1,0-0.2-0.1-0.2-0.1c-0.4-0.8-1.2-1.1-2-1.2
		c-1.4-0.3-2.7,0-3.9,0.6C186.2,12.6,186.1,12.7,185.9,12.8z"/>
	<path class="st0" d="M140.1,9.8c-1,0-1.8-0.8-1.8-1.8c0-1,0.8-1.8,1.8-1.8c1,0,1.8,0.8,1.8,1.8C141.9,9,141.1,9.8,140.1,9.8z"/>
</g>
</svg>
