<?xml version="1.0" encoding="utf-8"?>
<!-- Generator: Adobe Illustrator 24.0.2, SVG Export Plug-In . SVG Version: 6.00 Build 0)  -->
<svg version="1.1" id="Capa_1" xmlns="http://www.w3.org/2000/svg" xmlns:xlink="http://www.w3.org/1999/xlink" x="0px" y="0px"
	 viewBox="0 0 200 59.7" style="enable-background:new 0 0 200 59.7;" xml:space="preserve">
<style type="text/css">
	.st0{fill:#93172C;}
</style>
<g>
	<path d="M60,55.6c0.7-1.4,1.3-2.8,2-4.2c4.7-9.5,9.4-19,14.1-28.5c0.1-0.1,0.1-0.3,0.2-0.4c0.3-0.1,0.4,0,0.6,0.3
		c1.2,2.6,2.5,5.2,3.7,7.8c4,8.3,8,16.6,12,25c-2,0-4.1,0-6.1,0c0,0,0-0.1,0-0.1c-0.9-1.8-1.7-3.6-2.6-5.4c-0.1-0.2-0.2-0.2-0.4-0.2
		c-4.8,0-9.7,0-14.5,0c-0.3,0-0.4,0.1-0.5,0.3c-0.8,1.7-1.6,3.4-2.5,5.1c0,0.1-0.1,0.2-0.1,0.3C64,55.6,62,55.6,60,55.6z M70.8,45.3
		c3.7,0,7.3,0,11,0c-1.8-4-3.6-7.9-5.4-11.9c0,0-0.1,0-0.1,0C74.5,37.4,72.7,41.3,70.8,45.3z"/>
	<path d="M139.2,55.6c0.4-0.9,0.8-1.8,1.3-2.7c4.2-8.5,8.4-16.9,12.6-25.4c0.8-1.5,1.5-3.1,2.3-4.6c0.1-0.2,0.3-0.4,0.4-0.4
		c0.1,0,0.3,0.2,0.4,0.3c4.1,8.6,8.2,17.2,12.4,25.8c1,2.2,2.1,4.3,3.1,6.5c0.1,0.1,0.1,0.3,0.1,0.4c-2,0-4,0-6.1,0
		c-0.8-1.8-1.7-3.6-2.5-5.4c-0.1-0.3-0.3-0.4-0.6-0.4c-4.8,0-9.6,0-14.4,0c-0.3,0-0.5,0.1-0.6,0.4c-0.8,1.8-1.7,3.6-2.6,5.4
		C143.1,55.6,141.2,55.6,139.2,55.6z M150,45.3c3.7,0,7.3,0,11,0c-1.8-4-3.6-8-5.4-12C153.7,37.3,151.8,41.3,150,45.3z"/>
	<path d="M95.9,55.6c0-9.4,0-18.7,0-28.1c-3.8,0-7.5,0-11.3,0c0-1.7,0-3.3,0-4.9c9.4,0,18.9,0,28.3,0c0,1.6,0,3.2,0,4.9
		c-0.1,0-0.3,0-0.5,0c-3.4,0-6.8,0-10.3,0c-0.4,0-0.5,0.1-0.5,0.5c0,9,0,18.1,0,27.1c0,0.2,0,0.3,0,0.5
		C99.8,55.6,97.9,55.6,95.9,55.6z"/>
	<path d="M116.1,55.6c0-0.2,0-0.3,0-0.5c0-10.7,0-21.4,0-32.1c0-0.1,0-0.3,0-0.5c1.9,0,3.8,0,5.8,0c0,9.3,0,18.6,0,27.9
		c4.8,0,9.5,0,14.4,0c0,1.7,0,3.5,0,5.2C129.5,55.6,122.8,55.6,116.1,55.6z"/>
	<path class="st0" d="M4.6,29.6c0-7.4,0-14.8,0-22.2c0-1.8,1.3-3.3,3.1-3.7c0.2,0,0.5-0.1,0.8-0.1c13.5,0,26.9,0,40.4,0
		c1.7,0,3.3,1.2,3.7,2.8c0.1,0.3,0.1,0.7,0.1,1c0,14.7,0,29.4,0,44.2c0,2.1-1.5,3.7-3.7,3.9c-0.3,0-0.6,0-0.8,0
		c-13.1,0-26.1,0-39.2,0c-1.1,0-2.1-0.2-3-0.9c-0.9-0.7-1.4-1.7-1.4-2.8C4.6,44.4,4.6,37,4.6,29.6z M19.8,23.9c0.3,0,0.4,0,0.5,0
		c1.2-0.1,2.5-0.1,3.7-0.3c3.2-0.5,6.2-1.5,9.1-2.9c2.5-1.3,4.9-2.7,6.8-4.9c0.8-1,1.5-2,1.7-3.4c0.1-0.5,0-0.9-0.2-1.4
		c-0.6,1.8-1.1,2.7-2.4,4c-2,2-4.4,3.4-7,4.6c-3.1,1.4-6.2,2.3-9.6,2.6c-1,0.1-2.1,0.1-3.1,0.1c-0.3-1.1-0.5-2.2-0.5-3.2
		c1.5-0.1,2.9-0.2,4.3-0.4c3.3-0.5,6.4-1.5,9.3-2.9c2.2-1.1,4.3-2.4,6.1-4.2c1-1,1.9-2.1,2.2-3.4c0.2-0.7,0.2-1.4,0-2
		c-0.3,0.6-0.5,1.3-0.8,1.8c-0.7,1.2-1.6,2.2-2.7,3c-5.1,4-11,6.1-17.4,6.4c-0.3,0-0.6,0-1,0C19.8,10.7,23.4,6.8,30,5.8
		c-2.8-0.1-5.3,0.6-7.6,2.2c-3.2,2.2-5,5.3-5.7,9.2c-1.6-0.4-3.1-0.8-4-2.4c-0.1,0.6,0,1.2,0.2,1.7c0.4,1,1.3,1.5,2.2,1.9
		c0.5,0.2,1,0.3,1.4,0.5c0.1,1,0.2,2.1,0.3,3.1c-0.6-0.2-1.1-0.5-1.6-0.7c-0.7-0.3-1.2-0.9-1.6-1.5c-0.1,0.8,0.1,1.6,0.6,2.2
		c0.7,0.9,1.8,1.3,2.8,1.6c0.3,0.1,0.4,0.2,0.5,0.4c0.3,0.7,0.6,1.4,1,2c0.2,0.3,0.4,0.6,0.6,1c-1.8-0.3-3.5-0.8-4.5-2.6
		c0,0.3,0,0.5,0,0.7c0.1,1.3,0.9,2.1,2,2.7c1.1,0.6,2.3,0.8,3.5,0.9c0.4,0,0.7,0.1,0.9,0.4c0.1,0.2,0.3,0.3,0.5,0.4
		c3,2.5,6.4,3.5,10.2,2.9c3-0.4,5.5-1.9,7.5-4.1c0.4-0.4,0.7-0.9,1.1-1.4c0,0-0.1-0.1-0.1-0.1c-2.1,2.4-4.7,3.8-7.8,4.2
		c-3.1,0.4-6-0.4-8.6-2.4c0.4,0,0.7-0.1,1-0.1c2.5-0.4,4.9-1.1,7.3-2c3-1.2,5.9-2.8,8.2-5.1c1-1,1.9-2.1,2.3-3.5
		c0.2-0.7,0.2-1.3-0.1-2c-0.2,0.5-0.3,1-0.6,1.4c-0.2,0.5-0.5,0.9-0.8,1.3c-1.4,1.7-3.1,3.1-5,4.2c-4,2.3-8.3,3.8-12.9,4.3
		c-0.8,0.1-1.3-0.1-1.8-0.7C20.9,25.4,20.4,24.7,19.8,23.9z M19.4,53.3C19.4,53.3,19.4,53.3,19.4,53.3c0.3,0,0.6,0,0.9-0.1
		c2.5-0.6,4.3-2.1,5.6-4.3c1.7-2.7,2.2-5.7,1.7-8.8c-0.4-2.8-1.6-5.3-3.7-7.2c-0.9-0.8-1.9-1.4-3.1-1.8c0.1,0.1,0.2,0.2,0.2,0.3
		c0.7,0.8,1.4,1.6,2,2.5c2.2,3.9,2.6,8,1.4,12.2c-0.7,2.4-1.8,4.6-3.8,6.2C20.3,52.7,19.8,53,19.4,53.3z M34.4,33.3
		c-0.1,0-0.2,0-0.2,0c-0.1,0.1-0.2,0.1-0.3,0.2c-1.1,0.7-2.1,1.7-2.7,2.9c-2.1,3.9-1.9,7.8,0.1,11.7c1.3,2.5,3.2,4.3,6,5.1
		c0.8,0.2,1.7,0.4,2.7,0.2c-0.2-0.1-0.3-0.1-0.4-0.2c-1-0.4-2-1-2.8-1.8c-4-3.9-5.2-8.7-4.1-14.1C32.8,35.8,33.5,34.5,34.4,33.3z"/>
	<path d="M193.4,29.1c-1.1-0.5-2.1-0.9-3.1-1.3c-1.4-0.6-2.8-0.9-4.2-1c-1.4-0.1-2.7,0.1-3.9,0.9c-1.7,1.1-2,3.4-0.7,4.9
		c0.8,0.9,1.8,1.5,2.9,2.1c1.7,1,3.5,1.9,5.1,2.9c1.6,0.9,3,2.1,4.1,3.5c1.4,1.8,2,3.8,1.7,6c-0.5,4.4-3.2,6.7-7.2,7.9
		c-2,0.6-4.1,0.6-6.2,0.4c-2.2-0.2-4.4-0.7-6.5-1.5c-0.4-0.2-0.6-0.4-0.6-0.8c-0.1-1.4-0.2-2.8-0.4-4.2c0-0.4-0.1-0.8-0.1-1.2
		c0.8,0.4,1.5,0.8,2.3,1.2c1.7,0.9,3.5,1.5,5.4,1.8c1.8,0.2,3.7,0.2,5.3-0.8c1.3-0.8,2.1-1.9,2.1-3.5c0-1.5-0.7-2.7-1.8-3.7
		c-1.5-1.2-3.2-2-4.8-3c-1.5-0.9-3-1.8-4.4-2.8c-1.7-1.2-3-2.9-3.3-5c-0.5-3.3,0.7-5.9,3.5-7.8c1.4-0.9,3-1.4,4.8-1.6
		c3.4-0.3,6.7,0.3,9.9,1.6c0.2,0.1,0.3,0.2,0.3,0.4c-0.1,1.4-0.1,2.7-0.2,4.1C193.4,28.8,193.4,29,193.4,29.1z"/>
	<path d="M107.3,15.3c-2.9,0.1-5.8-2.5-5.7-6.1c0.1-3.2,2.7-5.7,5.9-5.6c3,0.1,5.5,2.7,5.5,5.9C113,13.1,110.1,15.4,107.3,15.3z
		 M111.1,9.5c-0.1-0.4-0.1-0.9-0.2-1.3c-0.4-1.4-1.3-2.4-2.8-2.7c-1.5-0.3-2.7,0.2-3.6,1.5c-0.7,1-0.9,2.2-0.7,3.4
		c0.3,2.2,2.6,3.6,4.7,3C110,12.9,111,11.3,111.1,9.5z"/>
	<path d="M59.9,15.3c0-3.9,0-7.7,0-11.6c0.1,0,0.2,0,0.3,0c1.2,0,2.5,0,3.7,0c0.8,0,1.6,0.2,2.3,0.8c1.2,0.9,1.4,3.5-0.5,4.4
		c-0.1,0.1-0.2,0.1-0.4,0.2c0.4,0.2,0.8,0.4,1.1,0.7c1,0.9,1.1,2,0.8,3.2c-0.3,1.2-1.1,1.8-2.2,2.1c-0.6,0.2-1.2,0.2-1.8,0.2
		C62.1,15.3,61,15.3,59.9,15.3z M61.8,13.6c0.7,0,1.3,0,1.9,0c0.3,0,0.6-0.1,0.8-0.2c0.7-0.4,1-1,0.9-1.8c0-0.7-0.5-1.3-1.2-1.4
		c-0.8-0.2-1.6-0.2-2.5-0.2C61.8,11.2,61.8,12.4,61.8,13.6z M61.8,8.4c0.6,0,1.1,0,1.6,0c0.3,0,0.7-0.1,1-0.3
		c0.6-0.3,0.8-0.9,0.8-1.6c-0.1-0.6-0.4-1-1-1.2c-0.8-0.2-1.6-0.2-2.4-0.2C61.8,6.2,61.8,7.3,61.8,8.4z"/>
	<path d="M88.2,10.9c0-2.4,0-4.8,0-7.2c0.7,0,1.3,0,1.9,0c0,3.9,0,7.7,0,11.7c-1.3-1.3-2.6-2.5-3.8-3.7c-1.3-1.2-2.5-2.5-3.8-3.8
		c0,2.5,0,4.9,0,7.3c-0.6,0-1.2,0-1.9,0c0-3.9,0-7.7,0-11.6c0,0,0.1,0,0.1-0.1C83.2,6,85.7,8.5,88.2,10.9
		C88.2,10.9,88.2,10.9,88.2,10.9z"/>
	<path d="M68.2,15.3c1.9-3.9,3.8-7.8,5.7-11.8c1.9,4,3.7,7.8,5.5,11.8c-0.7,0-1.3,0-1.9,0c-0.1,0-0.2-0.1-0.3-0.3
		c-0.2-0.5-0.5-1-0.7-1.5c-0.1-0.1-0.2-0.2-0.4-0.3c-1.6,0-3.2,0-4.8,0c-0.1,0-0.3,0.1-0.3,0.2c-0.3,0.5-0.5,1-0.8,1.6
		c0,0.1-0.2,0.2-0.3,0.2C69.4,15.3,68.9,15.3,68.2,15.3z M73.8,7.4c-0.7,1.5-1.3,2.8-1.9,4.3c1.3,0,2.5,0,3.8,0
		C75.1,10.2,74.5,8.8,73.8,7.4z"/>
	<path d="M100.3,6.7c-1-1-2.2-1.5-3.5-1.3c-0.9,0.1-1.7,0.5-2.4,1.2c-1.4,1.5-1.4,4.2,0,5.7c1.1,1.3,3.8,2,6.2-0.2
		c0,0.7,0,1.4,0,2.1c0,0.1-0.1,0.2-0.2,0.2c-3.5,2.2-8.2,0.4-8.9-3.8c-0.5-3.1,1.1-5.8,3.9-6.7c1.7-0.5,3.3-0.3,4.9,0.6
		c0.3,0.1,0.3,0.3,0.3,0.6C100.4,5.5,100.3,6.1,100.3,6.7z"/>
</g>
</svg>
