<?xml version="1.0" encoding="utf-8"?>
<!-- Generator: Adobe Illustrator 24.0.2, SVG Export Plug-In . SVG Version: 6.00 Build 0)  -->
<svg version="1.1" id="Capa_1" xmlns="http://www.w3.org/2000/svg" xmlns:xlink="http://www.w3.org/1999/xlink" x="0px" y="0px"
	 viewBox="0 0 624 756" style="enable-background:new 0 0 624 756;" xml:space="preserve">
<g>
	<path d="M70.2,395.3c-7.2-7.9-10.9-29.9-10.9-66.4c0-36.9,5.9-72.8,17.8-107.5c4.8-17.4,12-33.4,21.6-47.6c1.5-1.5,3-2,5-2
		c0.7,0,1.9,0.2,4,0.5c2,0.5,4.2,1.5,6.4,3.2c2.2,1.7,3.4,3.5,3.4,5.2c0,3.7-3.5,12.9-10.7,27.8c-3.9,8.2-7.2,16.5-10.1,24.6
		c-10.7,33.6-16.1,67.8-16.3,102.5c0,15.8,0.8,30.9,2.5,45.1c0.3,0.3,0.5,0.8,0.5,1.5c0,0.8,0.2,1.3,0.5,1.6
		c9.6-4.8,19.3-18.4,29.4-40.8c2-6.1,13.4-29.7,34.2-70.8c17.4-33.4,35.9-66.6,55.5-99.3c5.6-11.2,11.6-17.4,17.9-18.8
		c3.4,0,5.6,1.3,6.4,3.9c0,0.5-0.2,0.8-0.7,1c-6.2,1.7-12,8.4-17.6,19.3l-3,5.2c-26.4,44.3-49.1,87.9-68.1,131
		c-13.9,31.4-24.5,52.9-31.7,64.6l-5.2,9.2c-2,4.3-3.7,7-4.8,8.5c-2.5,3.4-6.1,5-10.6,5C79.6,401.7,74.5,399.5,70.2,395.3z"/>
	<path d="M183.4,361.9c-8.2-8-12.4-17.6-12.8-29.1c0-13.1,2.4-26,6.9-38.6c4.5-12.6,11.7-22.8,21.3-30.9c6.4-5.7,13.6-8.8,21.6-8.8
		c11.1,0,16.6,4.7,16.6,13.6c0,9.1-4.5,17.6-13.6,25.6c-7.7,6.4-16.1,10.2-25.5,11.4c-4.2,12.3-6.2,22.5-6.2,30.9
		c0,6.5,0.7,12.1,2,16.6c1.3,4.3,4.7,6.5,9.7,6.5c3.4,0,7.4-1,11.9-3c11.1-5.4,23.2-16.3,36.4-32.9c4.5-4.5,7-7.7,7.9-9.7
		c-0.3,0-0.5-0.7-0.5-2l1.7-0.5c0.7,0,1.3,0,2,0.2c0.7,0.2,1.5,0.5,2,1c0.8,0.5,1.2,1.2,1.2,1.9c0,1.7-0.8,3.7-2.4,5.6
		c-1.6,1.7-4.3,4.7-8.2,8.5c-13.8,17.1-28.3,30-43.5,38.7c-3.7,1.7-7.5,2.5-11.4,2.5C194.8,369.1,188.9,366.8,183.4,361.9z
		 M229.1,274.8c1.2-3.5,1.7-7,1.7-10.6c0-3.4-1-5-2.9-5c-3.2,0-6.5,3.4-9.9,10.2l-6.5,10.9c-3.7,4.5-7.2,11.1-11.1,19.3
		C213.1,296,222.7,287.6,229.1,274.8z"/>
	<path d="M256.3,372.1c-3.5-2.4-5.4-4.7-5.7-6.7c1.5-21.8,4.8-43.1,10.1-64.1c6.4-23.3,11.7-37.9,16.3-43.6c2-2.2,5.1-3.5,9.1-3.5
		c5.9,0,8.8,4,8.8,11.7c0,4.8-2.2,12.1-6.5,22.2l-2.5,7.5c3.5-5.2,7.2-10.2,10.9-15.1c10.6-13.6,20.8-20.3,30.7-20.3
		c2.7,0,5,0.3,6.5,1.3c1.6,1,2.4,2.9,2.4,5.9c0,7.2-2,15.4-6.1,24.3c-4.2,8.9-7.4,18.3-9.7,27.5c-0.3,0.3-0.7,1-1,2
		c-0.2,1-0.7,2.5-1.2,4.8c-0.5,2-0.7,4.3-0.7,6.2c0,1.2,0.3,2,1,2.7c0-0.3,0.5-0.7,1.3-0.8c1-0.3,1.9-0.8,3-1.5
		c1.3-0.5,2.4-1.2,3.5-1.5c1.3-0.5,1.9-0.8,2-1c0.1-0.2,2.2-1.3,6.4-3.7c7.2-5,13.9-10.7,20.1-17.1l1-0.3c0.3,0,1.2,0.3,2,0.7
		c1,0.5,1.5,1,1.5,1.7l-0.2,0.5c-8.5,8.6-14.9,14.7-19,18.3c-8.8,7.7-16.9,11.6-24.6,11.6c-5.1,0-10.1-2.2-14.7-6.4
		c-2.9-3.5-4.2-7.7-4.2-12.4c0-5.2,1.6-12.1,5-21c2.4-9.4,7-20,14.1-31.7c-1.5,1.5-3,2.9-4.8,4c-10.7,9.6-19.3,21-25.9,33.7
		l-5.7,9.7c-4,17.9-6.7,35.9-7.9,54c-0.5,2.7-2.2,4-5,4C263.4,375.9,259.9,374.6,256.3,372.1z"/>
	<path d="M362.3,363.9c-9.1-6.9-13.8-15.8-13.8-27c0-18.1,6.4-34.1,19-48c0.5-0.8,1.3-1.3,2.5-1.3c0.3,0,0.8,0,1.5,0.2
		c0.5,0.2,1.3,0.2,2,0.2c2,0,4.3,1,7,2.7c-0.7-2.9-1-5.6-1-8.4c0-7.2,2-13.6,6.4-19.2c4.3-5.6,9.6-8.5,15.8-8.5c3.7,0,7,1,10.4,2.9
		c8.4,4.7,12.4,12.8,12.4,24.5c0,10.7-2.2,23.2-6.7,37.1c11.1,0,21.5-2.7,31.2-8.4c0.2-0.2,0.5-0.3,0.8-0.3l1,0.2
		c2.4,0.5,3.9,1.3,4,2.7l-0.5,1c-10.1,6.5-21.1,9.9-32.7,9.9l-5.4-0.3c-3.5,10.6-7,19.3-10.4,26.2c-6.5,13.4-15.1,20.1-25.5,20.1
		C374.8,370.3,368.8,368.3,362.3,363.9z M410.1,322.1c-11.4-3.5-20-10.4-25.9-20.6l-1.3,3c-8.8,15.5-13.3,29.7-13.3,42.6l0.5,4.5
		c0,3.2,1.6,5,4.8,5.2C390.9,356.9,402.8,345.3,410.1,322.1z M419.4,280.7c0-13.4-5.2-20.3-15.6-20.3c-3,0-5.7,1.5-8,4
		c-5.1,5.6-7.5,12.6-7.5,21c0.3,13.4,6.1,23.7,17.6,30.7c1.7,0.8,3.7,1.6,5.7,2.2C416.7,300,419.4,287.4,419.4,280.7z"/>
</g>
<g>
	<path d="M247.9,520.2c-4.3-4.9-5.6-10.3-4.3-16.2c0.3-1.3,0.9-2.5,1.6-4c4.8-8.2,11.6-13.9,20.5-17.2c10-4.4,20.3-8.2,30.9-11.2
		c1.1-0.4,1.7-0.7,2.1-0.7l7.9-15.4c-5.9,5.1-12.5,6.9-19.6,5.4c-3-1-5.8-2.8-8.1-5.4c-4.5-4.6-5.9-10.6-4.2-17.7
		c0.8-3.3,2.1-7,3.9-11.3c1.2-5,4.9-11.9,11.2-20.9l0.6-1.1c4.9-7.8,10-11.3,15.5-10.6c3.4,1.3,4.7,4,3.6,8.2
		c-1.7,3.5-3.9,6.8-6.6,10.1c-1.7,1.9-3,3.8-4.3,5.6c-5.3,8.2-8.5,14.6-9.7,19.5c-1.1,2.6-2,5.7-2.9,9.5c-1.1,4.6,0.1,7.4,3.6,8.2
		c2.3,0.6,4.9,0.3,8.1-0.7c4.8-1.7,9.7-5.1,14.9-11c7.7-16.5,15.5-31.5,23.6-44.7c0.6-0.8,1.6-1.1,2.8-0.8c0.3,0.1,1.1,0.4,2.2,0.9
		s2.4,1.5,3.9,2.8c1.4,1.4,1.8,2.8,1.6,4.1c-7.4,17.8-15.7,35.1-25.1,52.2c-1.3,2.1-2.4,4.5-3.7,7c3.6-1.3,7.1-2.7,10.7-4.1
		c9.8-4.6,17.5-11.4,23-20.7c0.3-0.2,0.8-0.1,1.7,0.1c1.5,1,2,1.8,1.8,2.8c-8,12.2-21.6,21.8-40.5,28.2c-2.9,5.1-5.5,10.1-7.9,15.3
		c-3.7,8.5-8.2,16.3-13.3,23.8c-5.1,7.6-12.1,12.7-20.8,15.6c-4.8,1.4-9.3,1.6-13.5,0.6C255.5,525.6,251.6,523.4,247.9,520.2z
		 M255.1,516.9l2.6-0.2c8.7-0.8,15.8-4.6,21.3-11.4c5.4-6.8,11-16.2,16.5-28.2c-5.2,1.7-10.5,3.5-15.6,5.5
		c-8.5,1.9-16.8,6.5-24.8,13.5c-2.7,2.7-4.5,5.8-5.3,9.3c-0.6,2.3-0.6,4.6-0.1,6.9c0.4,2.3,1.7,3.7,3.8,4.2L255.1,516.9z"/>
</g>
<g>
	<path d="M86.7,673.4c-2.4-6.2-3.8-12.9-3.8-20c0-9.5,2-20.5,6.3-32.7c-0.3-0.5-0.7-0.9-1.2-1.2c-5.9-8.2-9-17.2-9-27.1
		c0-12.9,3.5-27.3,10.5-43.3c7.6-21.6,21.3-37.8,41.1-48.6c7-3.4,13.5-5.1,19.8-5.1c9.8,0,18.9,4.1,27.3,12.5
		c6.8,8.5,10.3,19,10.3,31.5c0,7.6-0.7,15.3-2.2,22.7c-6.2,37.7-17.2,70.2-33,97.9c-5.9,11.8-11.6,20.5-17.3,26.1
		c-5.4,4.1-11.2,6.2-17.4,6.2C104,692.4,93.4,686.1,86.7,673.4z M116.3,679.5h0.7c28.8-8.3,49.4-45.6,62.1-112.1
		c2.7-11.5,4.1-21.4,4.1-29.6c0-15.4-5.1-26.7-14.9-34c-3.5-2.7-7.5-4-11.9-4c-9,0-17.2,4.3-24.5,12.9
		c-10.9,12.9-19.2,27.3-25.2,43.2c-6.7,15.6-10.2,29.4-10.2,41.4l0.3,6c11.8-22.4,22.9-36.5,33.6-42.2l2-0.4c0.8,0,1.8,0.3,3.1,0.5
		c1.3,0.4,2.6,1.1,3.9,1.8c1.2,0.8,1.8,1.8,1.8,3l-0.1,1.2c-2.3,6.3-6,12.2-11,17.7l-6.4,8.2c-2.8,4.3-8,13.9-15.6,29.1l5.1,0.4
		c4.3,0,8.9-0.9,13.8-2.6l6.7-1.5c0.3-0.5,0.9-0.7,2.2-0.7c2.3,0,4.7,0.4,7.1,1.2c4.8,1.7,7.2,3.6,7.2,5.8l-0.5,1.6
		c-4.8,5.1-13.5,7.6-26.3,7.6c-7,0-13.1-1.1-18.4-3.1c-3.1,8.9-4.7,17.7-4.7,26.3c0,15.8,3.1,23.7,9.1,23.7
		C111.9,680.6,114.2,680.2,116.3,679.5z"/>
	<path d="M177.5,718.3c-6.3-3.5-9.4-8.3-9.4-14.5c0-3,0.9-6.6,2.6-10.7c5.5-13.7,16-23.7,31.2-30.3c-1.5-8.6-3.6-17.6-6.7-26.5
		c-2.2-5.6-3.4-11.4-3.4-16.9c0-5.5,1.2-11.2,3.4-16.8c5.1-10.5,13-17.4,24.1-20.9l3.5-0.4c1.9,0,4.1,0.5,6.6,1.7
		c4,1.7,5.9,5.1,5.9,10.2c0,8.3-3.9,16-11.8,23.3l-0.4,0.1c-1.6,0-2.3-0.4-2.3-1.3l0.3-0.3c6.4-8.7,9.7-16.9,9.7-24.5
		c0-3.5-1.8-5.6-5.4-6.4c-1.2,0-2.4,0.4-3.6,1.2c-3.7,2.2-6.4,5.6-8.2,10.6c-0.3,0-0.4,0.1-0.4,0.4c-3.4,7.6-5.1,15.4-5.1,23.3
		c0,7,1.6,15.1,4.8,24.5l3.9,11.9c15.1-5.2,26.5-11.9,34.7-19.4c4.9-4.9,7.9-8.6,8.9-11.4c-0.5-0.4-0.8-0.8-0.8-1.1l0.4-0.4
		c0-0.7,0.5-1.1,1.5-1.1c0.7,0,1.6,0.3,2.4,0.8c0.9,0.7,1.5,1.5,1.6,2.3c0,1.3-0.7,2.8-1.8,4.5c-7.8,11.4-22,20.9-42.6,28.5
		l-3.2,1.5c1.7,7.2,2.4,14.6,2.4,22.2c0,9-1.9,17.7-5.6,26c-5.4,9.1-13.3,13.8-23.7,13.8C186.3,722.2,181.9,720.7,177.5,718.3z
		 M191.6,708.2c7.6-6,11.4-16.5,11.4-31c-0.1-3.4-0.4-6.6-0.8-9.8c-9.4,4.5-17.2,11.2-22.9,20.2c-2.8,4.4-4.1,8.7-4.1,12.7
		c0,3,0.9,5.5,2.7,7.6c1.9,2,3.9,3,5.9,3C186.1,711,188.6,710.2,191.6,708.2z"/>
	<path d="M274.3,670.7c-10.1-4.5-15.7-12.2-17-23.3c0-15,1.5-27.6,4.3-37.9c2.2-12.3,7.2-23.1,15.4-32.3c0.7-0.5,1.6-0.8,2.8-0.8
		c0.7,0,2,0.3,4,0.8c2,0.4,3.9,1.5,5.5,2.7c1.7,1.5,2.4,2.8,2.4,4c0,0.7-0.9,2.7-2.8,5.9c-3.8,6.7-6.8,13.8-9.1,21.3
		c-4.1,13.9-6,26-6,36.5c0,9.8,2.3,14.6,7.2,14.6c6.3,0,13.4-7.6,21.2-23.1c1.5-1.8,4.3-7.1,8.5-15.6c-6.7-5.5-9.9-12.6-9.9-20.9
		c0-6.2,1.8-12.1,5.6-18.1c2.3-4,5.8-6.2,10.2-6.7c6.7,0.8,9.9,5.6,9.9,14.6c0,9.4-3.2,20-9.9,31.5c3.9,1.7,7.9,2.4,12.1,2.4
		c4.5,0,8.7-0.1,12.7-0.7c0.4,0,1.1,0.1,1.7,0.5c0.8,0.4,1.5,0.8,1.8,1.3c0.5,0.4,0.8,0.9,0.8,1.5c0,0.9-3.6,1.5-10.7,1.5
		c-6.8,0-13.4-1.2-19.8-3.6l-4.3,8.9c-3.7,9.4-8.5,18.2-14.2,26.1c-5.1,7.1-10.1,10.7-14.9,10.7
		C279.7,672.5,277.1,671.9,274.3,670.7z M321.4,593.5c0-7.8-1.3-11.5-3.9-11.5c-1.6,0-3.2,1.3-5.1,4c-4,5.1-5.9,11.5-5.9,18.9
		c0,6.8,1.7,12,5.2,15.4C317.4,609.4,320.6,600.4,321.4,593.5z"/>
	<path d="M404.4,668.9c-3.6-0.3-7.5-3.4-11.5-9.5c-2.7-4.5-4-9.5-4-15.3c0-2.6,0.3-5.1,0.8-7.9c-1.8,2.2-3.4,4.5-5.1,7.1
		c-5.1,8.5-11.4,15.7-18.7,21.7c-2.6,1.9-5.2,2.8-8.2,2.8c-5.5,0-10.7-2.4-15.4-7.5c-3.5-4.5-5.2-10.7-5.2-18.6
		c0-15.6,4.4-29.9,13.1-42.7c6.8-11.2,17.2-17.4,30.8-18.8c4.9,0,9.5,1.6,13.7,4.7c4.1,3.1,6.8,7.5,8.3,13.1
		c7.1-13.5,15-20.5,23.7-20.9c1.1,0,2,0.3,3.2,0.8c1.2,0.7,2,1.5,2.4,2.6c0.5,1.1,0.8,2.2,0.8,3.4c0,2.3-1.6,5.2-4.7,8.7
		c-5.2,8.2-9,13.9-11,17.8c-7.6,14.5-11.4,28.4-11.4,41.4c0,4,0.7,6.7,1.8,8.5c0.4,1.9,1.2,3.4,2,4.3c1.8,0,4.4-0.9,8-2.8
		c3.7-2,7-4.7,9.8-7.8c6.7-6.7,12.7-13.8,18.1-21.3c2-3.7,4.7-7,7.4-9.5c2.2,0,3.2,0.4,3.2,1.5c-1.1,5.1-5.1,11.5-11.6,18.7
		c-5.9,7.5-12.1,14.1-18.5,19.8c-4.8,4-10.1,6-16,6C410.1,669.3,408,669.2,404.4,668.9z M366.3,655.8c0.1-0.5,0.5-0.9,1.1-1.2
		c11.1-12,20.2-24.3,27.2-36.5l2.2-5.9c1.3-3.5,2-6.8,2-10.1c0-1.5-0.1-3.2-0.5-5.5c-0.4-2.4-1.5-4.7-3.4-6.8
		c-1.9-2-3.9-3.1-5.9-3.1c-5.2,0-11.1,4.7-17.4,14.2c-11.9,13.7-17.8,29.2-17.8,46.7c0,3.9,0.5,7.6,1.5,11.4l0.4,0.4
		c0.5,1.9,1.2,2.8,2.2,2.8C359.2,662.2,362.2,660,366.3,655.8z"/>
	<path d="M462.8,661.4c-8.4-8.5-12.5-18.6-12.5-30.3v-4.3c0-13.8,1.9-27.3,5.6-40.5c7.8-30.7,21.6-53.2,41.5-67.7
		c5.2-4,10.5-5.9,15.4-5.9c3.6,0,6.7,1.7,9.4,4.9c2.2,3.5,3.2,7.4,3.2,11.5c0,6.8-2,14.5-6,22.8c-12,25.6-28.3,42.5-48.9,50.4
		c-2.2,10.3-3.4,19.7-3.4,28c0,20.2,4.7,30.4,14.1,30.4c13.4,0,27.5-11.9,42.1-36.1c0.4-0.4,0.8-0.5,1.3-0.5c0.3,0,0.7,0.1,1.2,0.3
		c0.5,0.1,1.2,0.4,1.7,0.9c0.7,0.4,1.1,0.8,1.1,1.1l-0.1,0.4c-13,22-26.3,35.6-39.7,40.7c-2.6,1.1-5.1,1.6-7.8,1.6
		C474.9,669.1,469,666.5,462.8,661.4z M513.1,556.2c5.8-10.1,8.6-19,8.6-27.1c0-6.7-1.7-10.1-5.1-10.2c-3.9,0-7.1,2.8-9.9,8.3
		c-18.7,25.1-30.6,49.2-35.4,72.4C489.9,588.8,503.8,574.3,513.1,556.2z"/>
</g>
<g>
	<path d="M26.5,81.1c0.8,1.7,0,3.6-1.6,4.4c-1.7,0.8-3.6,0-4.4-1.7c-0.8-1.7,0-3.6,1.7-4.4C23.9,78.6,25.7,79.4,26.5,81.1z
		 M24.6,90.2l3.7-1.7l11.5,24.2l-4.8,2.1L24.6,90.2z"/>
	<path d="M94.9,45l11.3,35.6l-4.7,1.5L73.9,59.7L82.8,88l-4.7,1.5L67,53.9l4.7-1.5l27.6,22.3l-8.9-28.3L94.9,45z"/>
	<path d="M140.4,72.6c-10.2,2.2-19.9-3.7-22.3-14.7c-2.3-10.9,4-20.3,14.3-22.5c10.3-2.2,19.9,3.7,22.3,14.7
		C157.1,61,150.6,70.4,140.4,72.6z M139.5,68.4c7.7-1.7,12.2-8.5,10.3-17.4c-1.9-8.9-8.8-13.2-16.5-11.6
		c-7.7,1.7-12.2,8.5-10.3,17.4S131.8,70.1,139.5,68.4z"/>
	<path d="M186.7,64.7c-7.4,1-13.2-2.5-14.1-8.6l5.1-0.7c0.7,3,3.3,5.8,8.5,5.1c4.7-0.6,7.1-3.6,6.6-7.1c-1.3-10-20.4-1.1-22.2-14.8
		c-0.8-6.1,3.6-10.9,11-11.8c7.1-0.9,12.1,2.4,13.4,8l-5.3,0.7c-0.7-2.4-3.3-5-7.9-4.5c-4,0.4-6.9,2.8-6.3,6.8
		c1.2,9.5,20.4,1.1,22.2,14.8C198.4,58,194.8,63.7,186.7,64.7z"/>
	<path d="M258.2,22.2c8.1,0.1,14.4,4.3,17.1,11.6l-5.8-0.1c-1.9-4.6-5.8-7.1-11.4-7.2c-7.8-0.1-13.7,5.4-13.9,14.6
		c-0.2,9,5.5,14.9,13.4,15c5.4,0.1,9.4-2.3,11.6-6.8l5.8,0.1c-2.9,7.1-9.3,11-17.4,10.9c-10.4-0.2-18.5-8.1-18.3-19.2
		C239.4,29.9,247.8,22.1,258.2,22.2z"/>
	<path d="M314.9,54.7l-16.1-1.5l-3.7,8l-5.1-0.5l16.8-35.7l5.6,0.5l10,38.1l-5.1-0.5L314.9,54.7z M308.9,31.3l-8.5,18.1l13.4,1.3
		L308.9,31.3z"/>
	<path d="M349.7,68.4c-7.4-1.3-11.9-6.3-10.9-12.3L344,57c-0.2,3.1,1.5,6.5,6.5,7.4c4.7,0.8,7.9-1.4,8.5-4.9
		c1.7-9.9-19.2-7-16.8-20.7c1.1-6,6.7-9.3,13.9-8.1c7,1.3,10.9,5.8,10.5,11.6l-5.2-0.9c0.1-2.5-1.7-5.7-6.2-6.5
		c-3.9-0.8-7.4,0.7-8.1,4.7c-1.7,9.5,19.1,7,16.8,20.6C362.8,65.4,357.7,69.8,349.7,68.4z"/>
	<path d="M402.4,71.4l-15.7-4.1l-5,7.3l-5-1.3l22.3-32.4l5.4,1.5l3.7,39.3l-5-1.3L402.4,71.4z M400.2,47.3L389,63.8l13,3.4
		L400.2,47.3z"/>
	<path d="M436,51.3l5,1.7l2.4,33.4l23.3-24.1l4.9,1.7l-12.6,34.8l-4.6-1.7l9.4-25.9l-21,21.8l-3.2-1.2l-2.1-30.2L428,87.6l-4.6-1.7
		L436,51.3z"/>
	<path d="M490.7,113.7c-9.4-4.6-13.4-15.2-8.6-25.3c4.9-10.1,15.6-13.6,25.1-9c9.5,4.6,13.4,15.2,8.6,25.3S500.2,118.3,490.7,113.7z
		 M492.5,109.9c7.1,3.4,14.9,0.8,18.8-7.4c4-8.3,1.2-15.9-5.9-19.3s-14.9-0.9-18.8,7.4C482.6,98.9,485.4,106.5,492.5,109.9z"/>
	<path d="M532.2,136c-6.4-3.8-8.8-10.1-5.8-15.4l4.5,2.6c-1.3,2.8-1,6.6,3.5,9.2c4.1,2.4,7.8,1.6,9.6-1.6
		c5.1-8.6-15.4-13.4-8.5-25.3c3.1-5.2,9.5-6.3,15.8-2.6c6.1,3.6,8.2,9.3,5.7,14.5l-4.6-2.7c1-2.3,0.4-5.9-3.5-8.4
		c-3.4-2.1-7.2-1.9-9.2,1.5c-4.9,8.3,15.4,13.4,8.4,25.3C545.5,137.7,539.1,140,532.2,136z"/>
	<path d="M580.8,168.4c-1.5-1.2-1.7-3.1-0.7-4.7c1.1-1.6,3.1-1.7,4.7-0.7c1.5,1.1,1.7,3.1,0.6,4.6
		C584.2,169.2,582.2,169.5,580.8,168.4z M601.1,136.6l4.2,3.1l-16.5,21l-3.2-2.4L601.1,136.6z"/>
</g>
</svg>
