<?xml version="1.0" encoding="utf-8"?>
<!-- Generator: Adobe Illustrator 24.0.2, SVG Export Plug-In . SVG Version: 6.00 Build 0)  -->
<svg version="1.1" id="Capa_1" xmlns="http://www.w3.org/2000/svg" xmlns:xlink="http://www.w3.org/1999/xlink" x="0px" y="0px"
	 viewBox="0 0 150 150" style="enable-background:new 0 0 150 150;" xml:space="preserve">
<style type="text/css">
	.st0{fill:#5A7A62;}
</style>
<g>
	<path class="st0" d="M75,27.8c-11.6,0-21,9.5-21.1,21C53.8,60.5,63.3,70,74.9,70c11.6,0,21.2-9.5,21.2-21.1
		C96.1,37.3,86.6,27.8,75,27.8z"/>
	<path class="st0" d="M75,2.5C35,2.5,2.5,35,2.5,75S35,147.5,75,147.5S147.5,115,147.5,75S115,2.5,75,2.5z M117.3,120
		c-0.5-13.7-5.9-25-16.8-33.5c-8.2-6.4-17.6-9.2-28-8.6C51.4,79.1,33,96.6,32.6,120c-2.5,0-5.1,0-7.9,0
		c1.3-22.9,12.6-38.4,33.4-47.3C41.7,60.3,43.6,39,54.6,28.3c11.4-11,29.1-11.1,40.6-0.1c10.8,10.3,13.5,31.8-3.4,44.5
		c20.8,8.8,32.1,24.4,33.4,47.3C122.5,120,120,120,117.3,120z"/>
</g>
</svg>
