<?xml version="1.0" encoding="utf-8"?>
<!-- Generator: Adobe Illustrator 24.0.2, SVG Export Plug-In . SVG Version: 6.00 Build 0)  -->
<svg version="1.1" id="Capa_1" xmlns="http://www.w3.org/2000/svg" xmlns:xlink="http://www.w3.org/1999/xlink" x="0px" y="0px"
	 viewBox="0 0 200 200" style="enable-background:new 0 0 200 200;" xml:space="preserve">
<style type="text/css">
	.st0{fill:#5A7A62;}
</style>
<g>
	<path class="st0" d="M7.8,184.3c2.4-5.7,4.9-11.4,7.3-17.1c14.8-35.2,29.5-70.3,44.3-105.5c0.2-0.5,0.4-1.1,0.6-1.6
		c1.3-3.9,4.1-5.7,8-4.6c3.6,1.1,7.1,2.7,10.4,4.6c3.3,1.8,6.3,4.2,9.9,6.6c2.3-3.8,4.9-7.6,7.1-11.6c5.3-10,8-20.8,8.9-32.1
		c0.3-3.2,0.4-6.4,0.5-9.7c0-2.1,0.7-3.6,2.7-4.5c0.6,0,1.2,0,1.8,0c1.7,0.8,2.7,2,2.6,3.9c-0.1,16-2.8,31.5-10.4,45.8
		c-2.3,4.3-5,8.3-7.7,12.6c0.2,0.2,0.6,0.6,1.1,0.9c10.4,8.8,20,18.4,28.8,28.7c1,1.1,1.7,1.3,3,0.7c6.6-3.2,13.5-5.5,20.7-7.1
		c2.1-0.5,3.6,0.1,4.4,1.6c0.8,1.4,0.7,2.9-0.5,4c-0.7,0.6-1.7,1-2.6,1.3c-5.9,2-11.7,3.9-17.6,5.9c-0.5,0.2-0.9,0.4-1.5,0.7
		c1.5,2.1,3,4,4.3,6c2.2,3.6,4.4,7.3,6.3,11.1c0.9,1.8,1.2,3.9,1.2,5.9c0.1,2.5-1.3,4.3-3.7,5.3c-9,3.7-18.1,7.4-27.1,11.2
		c-32.3,13.5-64.5,27-96.7,40.6c-3.1,1.3-4.2,1-6.1-1.7C7.8,185.7,7.8,185,7.8,184.3z M63,71.3c-1.3,3.2-2.5,6.4-4.1,9.5
		c-1.5,2.8-1.1,4.7,1,7.3c3.3,3.9,5.8,8.4,8.4,12.9c1.3,2.3-0.1,4.8-2.6,5.2c-1.6,0.2-2.8-0.7-3.8-2.5c-2.3-3.9-4.8-7.7-7.2-11.6
		c-0.2,0.1-0.4,0.1-0.5,0.2c-0.9,2.1-1.7,4.2-2.7,6.2c-0.9,1.8-0.7,3.2,0.2,5c3.1,6.2,6.2,12.4,8.6,18.8c3.7,9.5,5.5,19.5,4,29.8
		c-0.4,2.6-1.1,5.2-1.8,8c1.9-0.8,3.8-1.4,5.5-2.3c1.1-0.6,2.2-1.4,2.8-2.4c1.8-3.3,3.5-6.6,4.8-10.1c5.1-13.3,6.6-26.9,3.9-41
		C77.2,91.6,70.2,81.5,63,71.3z M123.1,111.2c-1.1,0.6-2.2,1.2-3.2,1.7c-1.8,0.8-3.6,0.2-4.5-1.4c-0.9-1.6-0.5-3.5,1.1-4.6
		c0.6-0.4,1.2-0.8,2-1.3c-9.1-10.6-18.9-20.3-29.5-29.2c-3,2.5-4.5,2.8-6.2,1.4c-1.6-1.4-1.5-3.2,0.4-6c-4.9-3.6-9.8-7.3-16.1-9.5
		c0.5,1.3,0.7,2.2,1.2,3c1.5,2.7,2.9,5.4,4.6,7.9c12.2,17.4,27,32.3,43.6,45.5c4.7,3.7,9.9,6.6,14.9,9.8c0.8,0.5,1.7,0.7,3.1,1.2
		C131.7,122.4,127.4,116.8,123.1,111.2z M47.2,109.1c-0.5,1.1-0.8,1.7-1,2.3c-3,7.1-5.9,14.3-9,21.3c-0.5,1.3-0.5,2.2,0.1,3.4
		c4.1,8.2,6.4,16.8,5.7,26.1c-0.2,2.1-0.6,4.1-0.9,6.3c2.5-1.1,4.9-1.9,7.1-3c1.4-0.8,2.9-1.8,3.9-3.1c3.1-4.1,4.4-9,4.7-14.1
		c0.6-8.7-1.4-17-4.5-25C51.5,118.7,49.4,114.2,47.2,109.1z M86.1,100.6c4,18.1,1.5,35.1-5.7,51.8c0.9-0.3,1.3-0.5,1.8-0.7
		c4.2-1.7,8.3-3.5,12.5-5.2c2-0.8,3.5-2,4.8-3.7c4.8-6.4,6.7-13.7,7.2-21.4c0.1-1.1-0.3-1.8-1.1-2.5c-6-5.6-12-11.3-18-17
		C87.2,101.6,86.8,101.3,86.1,100.6z M17.9,178.8c4.1-1.7,7.6-3.4,11.3-4.7c3-1,4.5-3,5.4-5.8c2.6-8.3,1.5-16.4-1.6-24.3
		c0-0.1-0.2-0.1-0.4-0.1C27.7,155.4,22.9,166.9,17.9,178.8z M109.7,140.3c5.2-2.2,10.5-4.4,15.8-6.6c-4.1-2.8-8-5.4-11.7-7.9
		C112.4,130.6,111.1,135.3,109.7,140.3z"/>
	<path class="st0" d="M146.7,8.8c0.4,0.2,0.9,0.3,1.3,0.5c5,1.6,8.2,6.6,7.4,11.6c-0.9,5.3-5.2,9.1-10.5,9.1
		c-5.2,0-9.7-3.9-10.4-9.1c-0.8-5,2.4-10,7.4-11.6c0.4-0.1,0.9-0.3,1.3-0.4C144.4,8.8,145.6,8.8,146.7,8.8z M148.5,19.4
		c0-1.9-1.5-3.5-3.4-3.5c-1.9-0.1-3.6,1.5-3.6,3.5c0,1.9,1.5,3.5,3.4,3.5C146.8,23,148.4,21.3,148.5,19.4z"/>
	<path class="st0" d="M166.9,69.9c5.8,0,10.5,4.6,10.6,10.4c0.1,5.8-4.7,10.7-10.6,10.7c-5.8,0-10.5-4.8-10.5-10.5
		C156.4,74.6,161.1,70,166.9,69.9z M167,77c-2,0-3.5,1.4-3.6,3.3c-0.1,2,1.5,3.6,3.5,3.6c1.9,0,3.4-1.6,3.5-3.5
		C170.4,78.5,169,77,167,77z"/>
	<path class="st0" d="M173.3,43.8c2.1,0.2,3.7,1.5,3.9,3.5c0.1,2-1.3,3.5-3.6,3.7c-8.5,0.9-16.5,3.1-23.8,7.7
		c-1.9,1.2-3.6,2.6-5.3,4.1c-2,1.7-4,1.8-5.5,0.3c-1.5-1.5-1.2-3.7,0.6-5.4c6.6-6.3,14.6-9.8,23.3-12
		C166.4,44.9,169.9,44.5,173.3,43.8z"/>
	<path class="st0" d="M161.3,162.7c0,1,0,1.7,0,2.5c0,2.9-1.3,4.5-3.5,4.6c-2.2,0-3.5-1.6-3.6-4.5c0-0.8,0-1.5,0-2.5
		c-1.2,0-2.2,0-3.2,0c-2.3-0.1-3.8-1.5-3.8-3.5c0-2.1,1.5-3.4,3.8-3.5c1,0,2,0,3.2,0c0-0.8,0-1.4,0-2.1c0-3.4,1.2-5,3.6-5
		c2.3,0,3.5,1.6,3.5,4.9c0,0.6,0,1.3,0,2.1c1.3,0,2.4,0,3.5,0c2.1,0.1,3.5,1.5,3.5,3.4c0,1.9-1.3,3.4-3.3,3.6
		C163.8,162.8,162.7,162.7,161.3,162.7z"/>
	<path class="st0" d="M119.5,72.4c-1.3,0-2.2,0-3.1,0c-2.4-0.1-3.9-1.5-3.9-3.6c0-2,1.5-3.3,3.9-3.4c1,0,2,0,3.2,0
		c0-1.3-0.1-2.4,0-3.5c0.1-2.1,1.5-3.5,3.4-3.5c2,0,3.4,1.3,3.5,3.5c0.1,1.1,0,2.2,0,3.5c1.4,0,2.5-0.1,3.6,0c2,0.1,3.3,1.4,3.4,3.3
		c0.1,1.9-1.2,3.5-3.2,3.7c-1.1,0.1-2.3,0-3.8,0c0,1.2,0,2.2,0,3.3c-0.1,2.3-1.5,3.8-3.5,3.8c-2,0-3.4-1.5-3.5-3.8
		C119.4,74.6,119.5,73.6,119.5,72.4z"/>
	<path class="st0" d="M184.4,51.6c-2,0-3.8-1.6-3.8-3.6c0-1.9,1.6-3.5,3.5-3.5c2.1,0,3.8,1.6,3.8,3.6
		C187.8,50,186.3,51.6,184.4,51.6z"/>
	<path class="st0" d="M129.2,38.7c0,2-1.6,3.6-3.5,3.5c-1.9,0-3.4-1.6-3.5-3.5c0-1.9,1.7-3.6,3.6-3.5
		C127.6,35.3,129.2,36.8,129.2,38.7z"/>
	<path class="st0" d="M162.3,108.7c1.9,0,3.4,1.6,3.4,3.5c0,2-1.6,3.6-3.6,3.5c-1.9-0.1-3.4-1.7-3.4-3.6
		C158.8,110.3,160.5,108.7,162.3,108.7z"/>
	<path class="st0" d="M176.3,138.7c-0.1,1.9-1.6,3.4-3.5,3.4c-1.9,0-3.6-1.7-3.5-3.6c0.1-1.8,1.7-3.4,3.6-3.4
		C174.8,135.1,176.3,136.7,176.3,138.7z"/>
	<path class="st0" d="M77.6,21.4c5.8,0,10.5,4.6,10.6,10.4c0.1,5.9-4.7,10.7-10.6,10.6c-5.8,0-10.5-4.8-10.5-10.6
		C67.1,26.1,71.8,21.4,77.6,21.4z M77.7,28.5c-1.9,0-3.5,1.4-3.5,3.4c0,2,1.6,3.6,3.5,3.6c1.9,0,3.4-1.6,3.4-3.5
		C81.1,30,79.6,28.5,77.7,28.5z"/>
	<path class="st0" d="M44.2,38.3c0,1.3,0.1,2.4,0,3.5c-0.1,2.1-1.5,3.5-3.4,3.5c-1.9,0-3.4-1.4-3.6-3.6c-0.1-1,0-2.1,0-3.4
		c-1.1,0-2.1,0-3,0c-2.5-0.1-4-1.4-4-3.5c0-2.1,1.5-3.5,3.9-3.5c3-0.1,3-0.1,3.1-3.1c0.1-2.5,1.4-3.9,3.5-3.9c2.1,0,3.4,1.5,3.5,4
		c0.1,2.9,0.1,2.9,3.1,3c2.4,0.1,3.9,1.4,3.9,3.6c0,2-1.5,3.4-3.8,3.5C46.4,38.3,45.4,38.3,44.2,38.3z"/>
	<path class="st0" d="M56.7,19.4c-1.9,0-3.5-1.6-3.5-3.5c0-1.9,1.7-3.6,3.6-3.5c1.9,0.1,3.4,1.7,3.3,3.6
		C60.2,17.9,58.7,19.4,56.7,19.4z"/>
	<path class="st0" d="M64.8,111.7c0-1.9,1.5-3.4,3.4-3.5c2,0,3.6,1.5,3.6,3.5c0,1.8-1.6,3.5-3.4,3.5
		C66.4,115.3,64.8,113.7,64.8,111.7z"/>
</g>
</svg>
