<?xml version="1.0" encoding="utf-8"?>
<!-- Generator: Adobe Illustrator 24.0.2, SVG Export Plug-In . SVG Version: 6.00 Build 0)  -->
<svg version="1.1" id="Capa_1" xmlns="http://www.w3.org/2000/svg" xmlns:xlink="http://www.w3.org/1999/xlink" x="0px" y="0px"
	 viewBox="0 0 200 200" style="enable-background:new 0 0 200 200;" xml:space="preserve">
<style type="text/css">
	.st0{fill:#FFFFFF;}
</style>
<g>
	<path class="st0" d="M172.4,190c-48.9,0-97.7,0-146.6,0c-7-2.6-8.8-5.3-8.8-12.9c0-31.5,0-63,0-94.6c0-0.7,0-1.4,0-2.2
		c-2.7,0-5.6,0.6-7-2.5c0-10.3,0-20.6,0-30.9c0.1-0.2,0.2-0.3,0.2-0.5c1.9-5.9,5.3-8.3,11.4-8.3c5.6,0,11.1,0,16.7,0
		c0.6,0,1.2,0,1.7,0c0.3-2.8,0.4-5.3,0.9-7.8C42.8,21,46.1,12.6,56.8,10c1.6,0,3.3,0,4.9,0c5.1,1,8.9,4.2,12.8,7.3
		c4.4,3.5,8.9,6.8,13.3,10.3c1,0.8,1.6,0.8,2.6,0.1c1.3-0.9,2.8-1.7,4.4-2.2c8.5-2.6,16.5-1.9,23.9,3.4c5.3-4.1,10.7-8.2,16.1-12.4
		c3.6-2.9,7.3-5.7,12-6.5c1.6,0,3.3,0,4.9,0c5.1,1.2,9,4.1,11.6,8.6c2.3,3.9,3.6,8.2,4.2,12.7c0.3,2.2,0.5,4.5,0.7,6.8
		c3.9,0,7.6-0.1,11.4,0c3.8,0.1,6.8,1.7,8.8,4.9c0.7,1.2,1.1,2.5,1.7,3.8c0,10.3,0,20.6,0,30.9c-1.5,3.1-4.4,2.3-7,2.5
		c0,0.9,0,1.6,0,2.3c0,31.9,0,63.7,0,95.6c0,4.2-1.8,7.2-5.2,9.3C176.2,188.6,174.2,189.2,172.4,190z M67.6,97
		c-5.1,1.4-9.9,2.7-14.7,4c-2.4,0.7-3.9,0.3-4.9-1.1c-1-1.5-0.9-2.9,0.7-5c2.7-3.7,5.4-7.3,8.2-11c0.8-1.1,1.6-2.2,2.6-3.5
		c-12,0-23.6,0-35.4,0c0,0.5,0,0.9,0,1.3c0,32.3,0,64.6,0,96.8c0,3.1,1.3,4.3,4.4,4.3c19.7,0,39.5,0,59.2,0c0.6,0,1.1,0,1.6,0
		c0-30.4,0-60.5,0-91.1c-1.9,3.7-3.5,7-5.2,10.3c-1.9,3.7-3.7,7.4-5.6,11.1c-0.7,1.4-1.9,2.3-3.5,2.1c-1.7-0.2-2.8-1.2-3.2-2.8
		c-0.2-0.8-0.4-1.6-0.6-2.4C70,105.9,68.8,101.5,67.6,97z M117.7,92c0,30.6,0,60.8,0,91c0.5,0,0.9,0,1.3,0c16.9,0,33.7,0,50.6,0
		c0.4,0,0.8,0,1.2,0c3.4-0.4,5.1-2.2,5.1-5.6c0-31.6,0-63.1,0-94.7c0-0.7,0-1.5,0-2.1c-9.5,0-18.7,0-28.1,0c0.3,0.4,0.4,0.6,0.6,0.9
		c3.4,4.7,6.9,9.5,10.3,14.2c1,1.4,1.2,2.9,0.2,4.4c-1,1.4-2.4,1.7-4.1,1.2c-2.5-0.7-5.1-1.4-7.6-2c-2.6-0.7-5.2-1.4-7.9-2.1
		c-1.4,5.1-2.7,10-4,14.9c-0.5,1.8-1.3,3.2-3.3,3.4c-2,0.2-3.1-1-3.9-2.6c-2.9-5.8-5.8-11.5-8.7-17.2C119,94.5,118.4,93.4,117.7,92z
		 M110.5,182.9c0-0.8,0-1.5,0-2.2c0-31.6-0.1-63.1,0.1-94.7c0-5.7-0.7-10.8-3.8-15.6c-1.2-1.9-2.1-4.1-3.3-6.5
		c-2.2,4.4-4.3,8.3-6.2,12.4c-0.5,1-0.8,2.1-0.8,3.2c0,33.9,0,67.7,0,101.6c0,0.6,0,1.3,0,2C101.2,182.9,105.8,182.9,110.5,182.9z
		 M124,45.2c-0.1,0.2-0.1,0.4-0.2,0.6c0.3,0.3,0.6,0.6,1,0.8c6.3,3.7,12.5,7.4,18.8,11c6.1,3.4,11.4,1.9,14.2-4.4
		c4.5-9.9,4.4-20.1-0.2-29.9c-3.2-6.9-9.4-8.1-15.5-3.5c-5.5,4.2-11,8.5-16.5,12.8c-2.8,2.1-2.8,2.1-1.6,5.4c0,0,0.1,0.1,0.3,0.3
		c3.4,0,6.9,0,10.5,0c2.2,0,3.8,1.5,3.8,3.5c0,2-1.6,3.4-3.8,3.5c-1.8,0-3.5,0-5.3,0C127.7,45.2,125.9,45.2,124,45.2z M84.4,33.9
		c-6.3-4.9-12.5-9.7-18.8-14.5c-5.5-4.1-11.5-2.8-14.8,3.2c-0.4,0.8-0.8,1.6-1.1,2.4c-2.1,5.2-2.7,10.7-2.3,16.2
		c0.3,4.8,1.3,9.4,3.9,13.5c2,3.3,5,5,8.8,4.4c1.7-0.2,3.4-0.9,4.9-1.8c5.8-3.3,11.4-6.6,17.1-10c0.5-0.3,0.7-1,1-1.5
		c-0.5-0.2-1.1-0.6-1.6-0.6c-3.2-0.1-6.4,0-9.7-0.1c-2,0-3.5-1.6-3.5-3.5c0-1.9,1.4-3.4,3.4-3.5c0.9-0.1,1.8,0,2.6,0
		c2.8,0,5.7,0,8.4,0C83.4,36.6,83.9,35.3,84.4,33.9z M74.2,60.5c-0.1-0.1-0.1-0.1-0.2-0.2c-2.6,1.4-5.1,3-7.8,4.3
		C58.8,68,51,66.2,46.4,59.9c-1.7-2.4-2.9-5.2-4-7.9c-0.9-2.1-1.2-4.5-1.8-6.8c-6.4,0-12.7,0-19.1,0c-3.1,0-4.4,1.2-4.4,4.3
		c0,7.4,0,14.9,0,22.3c0,0.4,0.1,0.9,0.1,1.3c0.2,0.1,0.3,0.1,0.4,0.1c15.5,0,30.9,0,46.4,0c0.5,0,1.1-0.4,1.4-0.8
		C68.3,68.5,71.2,64.5,74.2,60.5z M167.6,45.2c-0.2,0.8-0.3,1.5-0.4,2.2c-0.9,4.5-2.4,8.7-5.1,12.4c-3.3,4.4-7.6,6.6-13.1,6.5
		c-3.6,0-6.7-1.3-9.7-3.1c-2.1-1.2-4.1-2.4-6.2-3.6c2.8,4.4,5.8,8.4,8.7,12.5c0.6,0.9,1.3,1.3,2.4,1.3c12.4,0,24.8,0,37.2,0
		c0.5,0,1-0.1,1.6-0.1c0-8.4,0-16.6,0-24.8c0-1.7-1.4-3.1-3-3.1C175.8,45.1,171.7,45.2,167.6,45.2z M130.8,102.1
		c0.9-3.3,1.6-6.2,2.4-9c1-3.6,2.3-4.4,5.9-3.4c2.6,0.7,5.3,1.4,8.4,2.2c-9.5-13-18.7-25.6-27.8-38.2c-1.7,1.1-3.3,2.3-5,3.1
		c-1.8,0.9-3.7,1.4-5.7,2.2C116.1,73.2,123.3,87.5,130.8,102.1z M87.6,54.2c-9,12.2-18.3,24.7-27.5,37.2c3.2-0.5,6.1-1.3,9-2
		c2.1-0.5,3.7,0.4,4.4,2.5c0.2,0.7,0.4,1.4,0.5,2c0.7,2.6,1.4,5.2,2.2,8.2c7.4-14.7,14.6-29,21.7-42.9
		C94.4,57.5,91.1,55.9,87.6,54.2z M103.5,52.2c3.4-0.1,6.6-0.6,9.5-2.6c5.8-4,5.8-11.9,0-15.9c-5-3.5-14.1-3.4-19.2,0
		c-5.8,4-5.7,12,0.1,15.9C96.9,51.6,100.2,52.1,103.5,52.2z"/>
	<path class="st0" d="M38.1,160.9c0,3.6,0,7.2,0,10.9c0,2.5-1.4,4.1-3.5,4.1c-2.1,0-3.5-1.6-3.5-4.2c0-7.3,0-14.6,0-21.9
		c0-2.5,1.4-4.1,3.5-4.1c2.1,0,3.5,1.6,3.5,4.2C38.1,153.6,38.1,157.2,38.1,160.9z"/>
	<path class="st0" d="M38.1,135.2c0,1.9-1.7,3.5-3.6,3.5c-1.9-0.1-3.4-1.6-3.4-3.5c0-1.9,1.7-3.5,3.6-3.5
		C36.6,131.7,38.1,133.3,38.1,135.2z"/>
</g>
</svg>
