<?xml version="1.0" encoding="utf-8"?>
<!-- Generator: Adobe Illustrator 24.0.2, SVG Export Plug-In . SVG Version: 6.00 Build 0)  -->
<svg version="1.1" id="Capa_1" xmlns="http://www.w3.org/2000/svg" xmlns:xlink="http://www.w3.org/1999/xlink" x="0px" y="0px"
	 viewBox="0 0 100 100" style="enable-background:new 0 0 100 100;" xml:space="preserve">
<style type="text/css">
	.st0{fill:#5B7A62;}
</style>
<g>
	<path class="st0" d="M31.4,28.5c0-7.9,0-15.8,0-23.8c0-3.4,0.9-4.3,4.2-4.3c9.7,0,19.3,0,29,0c3.3,0,4.3,0.9,4.3,4.2
		c0,15.8,0,31.6,0,47.3c0,3.7,0.3,4.1,4.1,4.1c4.4,0,8.9,0,13.3,0c1.6,0,3,0.3,3.7,1.9c0.7,1.6,0,2.8-1.1,3.9
		C76.7,74,64.7,86,52.7,98c-2,2-3.4,2-5.5-0.1c-12-12-24-24-35.9-35.9c-1.1-1.1-1.9-2.3-1.3-3.9c0.7-1.6,2-2,3.6-2
		c4.6,0,9.3,0,13.9,0c3.2,0,3.8-0.6,3.8-3.9C31.4,44.4,31.4,36.5,31.4,28.5z"/>
</g>
</svg>
