<?xml version="1.0" encoding="utf-8"?>
<!-- Generator: Adobe Illustrator 24.0.2, SVG Export Plug-In . SVG Version: 6.00 Build 0)  -->
<svg version="1.1" id="Capa_1" xmlns="http://www.w3.org/2000/svg" xmlns:xlink="http://www.w3.org/1999/xlink" x="0px" y="0px"
	 viewBox="0 0 100 100" style="enable-background:new 0 0 100 100;" xml:space="preserve">
<g>
	<path d="M90.5,25.9c0.8,0.1,1.6,0.1,2.3,0.3c4.1,0.8,6.6,4.1,6.7,8.7c0,15.5,0.1,31.1,0,46.6c0,5.6-3.4,8.8-9,8.8
		c-21.3,0-42.6,0-63.9,0c-5.2,0-7.9-2.4-9.1-8c-2.6-0.3-5-1.1-6.6-3.3c-1-1.4-1.2-3.5-2.4-4.7c-1.2-1.2-3.3-1.4-4.7-2.4
		c-2.2-1.6-3.2-3.9-3.2-6.7c0-13.8,0-27.6,0-41.4c0-7.8,6-14,13.9-14c8.5-0.1,17,0,25.5,0c10.6,0,21.3,0,31.9,0
		c5.5,0,8.3,2,10.1,7.2c0.1,0.4,0.5,1,0.9,1C87.2,18.9,89.5,21.7,90.5,25.9z M71,70.4c1.8,1.5,3.3,2.7,4.7,4c0.9,0.9,1,2,0,2.9
		c-0.9,0.9-1.9,0.6-2.8-0.2c-0.4-0.4-0.8-0.8-1.2-1.2c-8.5-8.8-17-17.5-25.5-26.2c-1.8-1.8-3-1.9-4.8-0.3
		c-6.3,5.6-12.7,11.2-19,16.8c-0.6,0.5-1,1.5-1,2.3c-0.1,4.3-0.1,8.6,0,13c0,3.4,1.6,5,5,5c21.4,0,42.8,0,64.3,0
		c3.3,0,4.9-1.6,4.9-4.9c0.1-3.2,0.1-6.3,0-9.5c0-0.7-0.4-1.6-0.9-2c-3.2-2.5-6.5-4.9-9.7-7.4c-1.1-0.8-2.3-0.9-3.4-0.1
		C78.3,65.1,75,67.5,71,70.4z M68.4,67.5c0.1-0.1,0.3-0.3,0.4-0.4c0.1,0,0.3-0.1,0.4-0.1c3.1-2.3,6.3-4.6,9.4-6.8
		c3.5-2.5,5.9-2.5,9.3,0c1.9,1.4,3.7,2.8,5.6,4.2c0.6,0.4,1.2,0.8,2,1.4c0.1-0.7,0.1-1,0.1-1.3c0-9.9,0-19.7,0-29.6
		c0-3.3-1.7-4.9-5.1-4.9c-21.3,0-42.6,0-63.9,0c-3.5,0-5.1,1.7-5.1,5.3c0,7.2,0,14.4,0,21.7c0,1.5,0,3,0,5c1-0.8,1.7-1.4,2.3-2
		c4.9-4.4,9.9-8.7,14.8-13.1c3.9-3.4,7.2-3.3,10.8,0.4c6,6.2,12,12.3,17.9,18.5C67.7,66.2,68,66.9,68.4,67.5z M78,17.8
		c-0.6-2.9-2.4-4.3-5.7-4.3c-18.8,0-37.7,0-56.5,0c-7.5,0-11.6,4.1-11.6,11.6c0,12.8,0,25.5,0,38.3c0,0.8,0,1.7,0.2,2.5
		c0.4,2.2,2,3.6,4.2,3.8c0-0.7,0-1.4,0-2.1c0-13.1,0-26.2,0-39.3c0-6.7,3.8-10.6,10.5-10.6c5.9,0,11.7,0,17.6,0c1.6,0,3.2,0,4.8,0
		c1.2,0,2,0.6,2,1.9c0,1.4-0.8,1.9-2.1,2c-0.5,0-0.9,0-1.4,0c-6.9,0-13.8,0-20.7,0c-4.9,0-7,2-7,6.9c0,12.3,0,24.5,0,36.8
		c0,2.6-0.1,5.3,0,7.9c0.1,2.9,2.1,4.8,5.1,4.9c0-0.7,0-1.4,0-2.1c0-13.5,0-27,0-40.4c0-6.5,3.2-9.6,9.6-9.6c19,0,38.1,0,57.1,0
		c0.7,0,1.3-0.1,2.1-0.1c-0.9-2.9-2.5-4.1-5.5-4.1c-7.5,0-15,0-22.5,0c-1.4,0-2.9,0-3-1.9c0-1.9,1.4-2,2.9-2c3.9,0,7.9,0,11.8,0
		C72.7,17.8,75.4,17.8,78,17.8z"/>
	<path d="M75.6,54.2c-4.5,0-8.2-3.6-8.3-8.1c-0.1-4.5,3.8-8.4,8.3-8.4c4.5,0,8.2,3.8,8.2,8.3C83.8,50.5,80.2,54.2,75.6,54.2z
		 M79.9,46c0-2.4-2-4.4-4.4-4.4c-2.3,0-4.3,2-4.4,4.3c-0.1,2.4,1.9,4.5,4.3,4.5C78,50.4,79.9,48.5,79.9,46z"/>
	<path d="M49.2,22c-0.5-0.7-1.3-1.3-1.5-2.1c-0.2-1.2,0.6-2.1,1.8-2c0.7,0.1,1.8,1,1.8,1.7c0.1,0.7-0.8,1.5-1.2,2.3
		C49.7,22,49.5,22,49.2,22z"/>
</g>
</svg>
