<?xml version="1.0" encoding="utf-8"?>
<!-- Generator: Adobe Illustrator 24.0.2, SVG Export Plug-In . SVG Version: 6.00 Build 0)  -->
<svg version="1.1" id="Capa_1" xmlns="http://www.w3.org/2000/svg" xmlns:xlink="http://www.w3.org/1999/xlink" x="0px" y="0px"
	 viewBox="0 0 200 200" style="enable-background:new 0 0 200 200;" xml:space="preserve">
<style type="text/css">
	.st0{fill:#5A7A62;}
	.st1{fill:#FFFFFF;}
</style>
<g>
	<g>
		<path class="st0" d="M184,125c-1.3-9-4.3-16.9-9-23.7c-4.7-6.8-11.1-12.6-19.2-17.2c-2.5-1.4-5.1-2.5-7.9-3.7
			c-1.3-0.5-2.5-1.1-3.8-1.6l-1.1-0.5l0.9-1.3c0.2-0.3,0.4-0.6,0.7-1l6.5-8.6c3.4-4.5,6.7-8.9,10.1-13.4c1.5-2.1,1.6-2.8,0.1-4.8
			c-1.4-2-2.8-4-4.2-6c-2.2-3.1-4.4-6.2-6.6-9.4c-0.9-1.2-1.9-1.8-3.3-1.7c-13.1,0-25.1,0-36.7,0c-1.5,0-2.5,0.5-3.4,1.8
			c-2.3,3.3-4.6,6.6-7,9.9c-1.3,1.8-2.6,3.6-3.9,5.5c-1.4,2-1.4,2.7,0.1,4.7c3.5,4.6,7,9.2,10.4,13.8l6.2,8.2
			c0.3,0.4,0.6,0.8,0.8,1.2l1,1.5l-1.2,0.5c-0.6,0.2-1.2,0.4-1.8,0.6c-1.4,0.5-2.6,0.9-3.9,1.4l-0.4,0.2c-1.6,0.7-3.3,1.4-4.8,2.3
			c-2,1.3-3.6,0.9-5.4,0c-16.3-8.3-32.9-8.8-49.5-1.4c-11.2,5-19.9,13.2-26,24.5c-5.2,9.7-7.4,20.3-6.3,31.6
			c1,10.9,4.9,20.7,11.7,29.2c7.8,9.8,17.6,16.3,29.2,19.4c2.5,0.7,5.1,1.1,7.6,1.5c1.2,0.2,2.4,0.4,3.6,0.6h7.9
			c0.9-0.2,1.9-0.3,2.8-0.5c2-0.3,4-0.7,6-1.1c4.5-1,9.1-2.8,14.1-5.4c0.8-0.5,2.2-0.7,3.1-0.2c7.2,3.9,14.7,6.2,22.5,6.9
			c0.3,0,0.6,0.2,0.9,0.2c0,0,0,0,0,0h7.4c0.1,0,0.2,0,0.3-0.1c0.3-0.1,0.7-0.2,1.1-0.2c13.7-1.2,25.4-6.7,34.8-16.3
			C181.4,159.1,186.7,143.2,184,125z M32.6,164.6c-16.6-20.3-14.5-49.5,3.9-67.4c19.4-18.8,50.3-18.7,69.5,0.1
			c18.4,18,19.2,45.7,6,64.1c-2.3-1.9-4.6-3.8-6.8-5.7c-0.3-0.3-0.3-1.3,0-1.8c4.3-7.2,6.5-15.1,5.8-23.4
			c-1.3-15.8-9.2-27.5-23.7-34C74.6,91,62.2,92,50.3,99.1c-13.7,8.1-21.1,24.5-18.5,40.2c2.8,16.7,15.1,29.5,31.6,32.8
			c7,1.4,14,1,20.7-1.4c1.2-0.4,2-0.3,2.8,0.7c1.8,2.3,3.8,4.5,5.5,6.5C76.8,186.6,49.8,185.6,32.6,164.6z M119,102
			c9.7-3.8,25.5-1.8,35.4,10.4c9.8,12.1,9.9,29.1,0.2,41.3c-9.5,12-25,14.6-35.6,10.7C131.2,143.5,131.2,122.7,119,102z M99.9,148.6
			c-5.1-10.5-5.1-20.7,0-31C105,125.4,105.5,139.5,99.9,148.6z M75.7,112.6c0,0.1-0.1,0.2-0.1,0.2s0,0.1,0,0.1c0,0,0,0,0,0
			c-6.2,18.2-4.3,35.1,5.5,51.1c-8.4,3.6-23.6,2.3-33.6-8.2c-10.8-11.3-12.3-28.1-3.8-41c8.1-12.2,24.3-17.9,37.4-13
			c-0.6,1-1.1,2.1-1.8,3c-0.1,0.1-0.2,0.3-0.3,0.4l0,0c-0.1,0.1-0.1,0.2-0.2,0.3c0,0,0,0.1-0.1,0.1
			C77.5,107.5,76.1,111.4,75.7,112.6z M93.2,168c-18.7-19.2-17.3-46.8-5.1-63.3c2.5,2,5,4.1,7.6,6.2c-3,4.7-4.9,9.5-6,14.6
			c-4.4,22.1,10.7,43.7,33,47c21.4,3.2,41.1-10.6,45.3-31.7c4.3-21.4-10.1-42.7-31.5-46.8c-7-1.3-14-0.9-20.7,1.5
			c-1.1,0.4-1.9,0.4-2.7-0.6c-1.9-2.3-3.9-4.5-5.8-6.7c22-10.8,49.4-3.7,63.3,17.8c14.3,22.1,8.9,50.5-10.7,66.1
			C139.6,188.3,110.8,186,93.2,168z M130,41.9c1.6,2,3.1,3.9,4.8,6.1h-11.9c2-2.5,3.9-4.9,5.9-7.5C129.3,41.1,129.7,41.5,130,41.9z
			 M145.7,38.4c0.3,0,0.7,0.3,1,0.6c2.1,2.9,4.2,5.9,6.5,9.2c-3.2,0-5.9,0-8.6,0c-0.4,0-0.8-0.2-1-0.5c-2.4-3-4.8-6-7.4-9.3
			C139.6,38.4,142.6,38.3,145.7,38.4z M131.4,73.5c-0.9,2.9-0.9,2.9-4.2,2.6c-0.8-2.5-1.7-5.1-2.5-7.7c-1.4-4.3-2.8-8.6-4.2-13.1
			h16.8c-1.3,4.2-2.6,8.2-3.9,12.2C132.7,69.5,132,71.5,131.4,73.5z M139.4,73.1c-0.1-0.1-0.3-0.1-0.4-0.2c1.6-4.9,3.2-9.9,4.7-14.8
			c1-2.9,1-2.9,4-2.9h5.1C148.2,61.3,143.8,67.2,139.4,73.1z M114.1,47.8c-0.2,0.3-0.8,0.4-1.2,0.4c-2.6,0-5.2,0-8.3,0
			c2.4-3.4,4.5-6.4,6.7-9.4c0.2-0.2,0.6-0.4,0.9-0.4c3,0,6,0,9.5,0C119,41.7,116.6,44.7,114.1,47.8z M113,55.3
			c1.9,5.9,3.8,11.8,5.7,17.8c-0.1,0.1-0.2,0.1-0.3,0.2c-4.5-5.9-8.9-11.8-13.5-18H113z"/>
		<path class="st1" d="M134.4,45.9c-1.3-1.6-2.5-3.1-3.6-4.6c-0.2-0.3-0.5-0.6-0.8-0.9l-1.2-1.4l-1.2,1.6c-1.8,2.3-3.6,4.5-5.4,6.9
			l-1.3,1.6h16L134.4,45.9z M129.2,42.5c1.2,1.5,2.3,2.9,3.5,4.5H125c1.3-1.6,2.6-3.3,3.9-4.9C129,42.3,129.1,42.4,129.2,42.5z
			 M152.1,45c-1.6-2.3-3.2-4.5-4.7-6.6c-0.4-0.5-1-1-1.8-1c-2.4,0-4.7,0-7.3,0h-4.3l3,3.9c1.9,2.5,3.8,4.8,5.6,7.1
			c0.4,0.5,1.1,0.8,1.8,0.8c1.6,0,3.1,0,4.8,0h5.8L152.1,45z M138.2,39.4h0.2c2.5,0,4.8,0,7.2,0c0.1,0,0.2,0.1,0.2,0.2
			c1.5,2.1,3.1,4.3,4.7,6.6l0.7,1h-0.1c-2.3,0-4.5,0-6.6,0c-0.1,0-0.2-0.1-0.3-0.1c-1.9-2.3-3.7-4.6-5.6-7.1L138.2,39.4z
			 M119.5,37.3c-2.6,0-5,0-7.4,0c-0.5,0-1.3,0.3-1.7,0.8c-1.7,2.4-3.4,4.8-5.2,7.4l-2.6,3.6h4.3c0.7,0,1.4,0,2,0c1.4,0,2.7,0,4,0
			c0.3,0,1.4-0.1,2-0.8c1.9-2.3,3.8-4.7,5.7-7.2l3-3.8H119.5z M106.9,47.2h-0.4l0.3-0.5c1.8-2.5,3.5-4.9,5.2-7.3c0,0,0.1,0,0.1,0
			c2.4,0,4.8,0,7.4,0l-0.5,0.6c-2,2.5-3.8,4.9-5.6,7.1c-0.1,0-0.3,0.1-0.5,0.1C110.9,47.2,109,47.2,106.9,47.2z M147.7,54.2
			c-3.5,0-3.9,0.3-4.9,3.6L138,72.6l-0.2,0.9l0.8,0.4c0.1,0,0.3,0.1,0.4,0.2l0.7,0.3l15.2-20.1H147.7z M147.7,56.2h3.1l-9.5,12.6
			l3.3-10.4c0.4-1.1,0.6-1.9,0.8-2.1C145.8,56.2,146.6,56.2,147.7,56.2z M113.8,54.3h-10.9l1.2,1.6c4.6,6.2,9.1,12,13.5,17.9
			l0.6,0.7l1.7-1L113.8,54.3z M106.9,56.3h5.4l4,12.5C113.2,64.7,110.1,60.5,106.9,56.3z M119.1,54.3l4.6,14.4c0.6,2,1.3,4,1.9,6
			l0.8,2.4l0.7,0.1c0.8,0.1,1.4,0.1,1.9,0.1c2.1,0,2.5-0.7,3.4-3.4c0.3-1,0.6-2,1-3c0.3-1,0.6-2,1-3c1.2-3.6,2.3-7.1,3.4-10.8
			l0.9-2.8H119.1z M135.8,56.4c-1.2,3.6-2.3,7.2-3.4,10.8c-0.3,1-0.7,2-1,3c-0.3,1-0.7,2-1,3c-0.3,1-0.6,1.8-0.8,2
			c-0.2,0.1-0.9,0.1-1.7,0l-0.4-1.1c-0.6-2-1.3-4-1.9-6l-3.8-11.8h14.1L135.8,56.4z M100.7,117l-1-1.5l-0.8,1.6
			c-5.2,10.7-5.2,21.1,0,31.9l0.8,1.6l1-1.6C106.4,140,106.3,125.6,100.7,117z M100,146.4c-3.9-9-3.9-17.8,0-26.7
			C103.5,126.6,104.2,138,100,146.4z M155.1,111.7c-10-12.3-26.3-14.7-36.5-10.7l-1.1,0.4l0.6,1c11.9,20.3,11.9,41,0,61.3l-0.6,1
			l1.1,0.4c3.1,1.1,6.6,1.7,10.3,1.7c9.2,0,19.4-3.8,26.5-12.7C165.3,141.6,165.2,124.1,155.1,111.7z M120.4,163.7
			c11.5-20.3,11.6-40.9,0-61.2c9.6-3.2,24-0.7,33.1,10.5c9.5,11.7,9.6,28.2,0.2,40C144.8,164.3,130.5,166.9,120.4,163.7z
			 M76.5,113.3l0.1-0.4c0.4-1.1,1.7-4.8,3-6.6c0,0,0.1-0.1,0.1-0.2c0.1-0.1,0.1-0.2,0.2-0.2l0.3-0.5c0.4-0.7,0.8-1.4,1.2-2
			c0.2-0.3,0.4-0.7,0.6-1l0.6-1l-1.1-0.4c-13.6-5-30.2,0.7-38.6,13.4c-8.8,13.2-7.2,30.6,3.9,42.3c6.8,7.1,16.3,10.3,24.5,10.3
			c3.7,0,7.3-0.7,10.2-1.9l1.1-0.5l-0.6-1C72.2,147.7,70.4,131.3,76.5,113.3z M48.3,155.2c-10.4-11-11.9-27.3-3.7-39.8
			c6-9,16.4-14.3,26.6-14.3c2.9,0,5.8,0.4,8.5,1.3c0,0,0,0,0,0c-0.4,0.7-0.7,1.3-1.1,1.9l-0.3,0.4c0,0.1-0.1,0.1-0.1,0.2l-0.1,0.2
			c-1.4,1.9-2.8,5.6-3.3,7.2c0,0.1-0.1,0.2-0.1,0.3c0,0.1,0,0.1-0.1,0.2l0,0.1c-6.1,18.1-4.5,34.7,5.1,50.8
			C70.9,166.8,57.1,164.6,48.3,155.2z M106.7,96.7c-9.5-9.3-22.1-14.4-35.4-14.5h-0.1c-13.3,0-25.8,5.1-35.4,14.3
			c-9.1,8.8-14.6,20.7-15.4,33.4c-0.1,1.1-0.1,2.1-0.1,3.2c0,11.7,4,23,11.5,32.1c10.7,13,25.8,18.7,39.7,18.7
			c7.8,0,15.3-1.8,21.4-5.2l1.1-0.6l-0.8-0.9c-0.5-0.6-1-1.2-1.6-1.8c-1.3-1.5-2.6-3-3.9-4.6c-1.4-1.7-2.8-1.4-4-1
			c-6.5,2.3-13.3,2.8-20.2,1.4c-16-3.2-28.1-15.8-30.8-32c-2.5-15.2,4.9-31.4,18-39.2c11.8-7,23.9-7.8,36-2.4
			c14,6.3,21.8,17.4,23.1,33.1c0.7,7.9-1.2,15.6-5.6,22.8c-0.4,0.7-0.5,2.3,0.2,3c1.7,1.5,3.5,3,5.3,4.5l2.4,2l0.6-0.9
			C127.1,142.2,124.5,114.1,106.7,96.7z M111.1,159.5c-1.7-1.4-3.5-2.9-5.1-4.3c0-0.2,0-0.5,0-0.6c4.6-7.7,6.6-15.8,5.9-24
			c-1.4-16.5-9.5-28.2-24.3-34.8c-12.8-5.7-25.5-4.9-37.8,2.5c-13.9,8.3-21.7,25.2-19,41.3c2.9,17,15.6,30.3,32.4,33.7
			c7.3,1.5,14.4,1,21.3-1.5c0.9-0.3,1.2-0.2,1.7,0.4c1.3,1.6,2.7,3.2,4,4.7c0.3,0.3,0.5,0.6,0.8,0.9c-16.3,8.2-41.9,5.4-57.6-13.7
			c-16-19.5-14.3-48.5,3.8-66c19.2-18.6,49.1-18.5,68.1,0.1c16.8,16.4,19.5,42.9,6.5,61.9L111.1,159.5z M171.5,105.4
			c-14-21.6-41.7-29.4-64.6-18.2l-1.2,0.6l0.9,1c0.5,0.6,1.1,1.2,1.6,1.9c1.4,1.5,2.8,3.1,4.2,4.8c1.3,1.5,2.6,1.3,3.8,0.9
			c6.5-2.3,13.3-2.8,20.2-1.5c10,1.9,18.8,7.8,24.7,16.4c5.9,8.7,8,19.1,6,29.2c-4.1,20.5-23.5,34-44.2,30.9
			c-10.5-1.6-19.6-7.3-25.8-16c-6.2-8.8-8.4-19.4-6.3-29.8c1-5,2.9-9.7,5.8-14.3l0.5-0.8l-0.7-0.6c-2.6-2.1-5.1-4.1-7.6-6.2
			l-0.8-0.7l-0.6,0.8c-12.1,16.3-14.3,44.5,5.2,64.6c9.9,10.2,23,15.4,36.3,15.4c5.6,0,11.2-0.9,16.5-2.8s10.5-4.7,15.2-8.4
			C181.1,156.5,185.8,127.5,171.5,105.4z M94,167.3c-18.4-19-16.7-45.4-5.7-61.1c2,1.6,4,3.3,6.1,5c-2.8,4.5-4.6,9.2-5.6,14.2
			c-2.2,11,0.2,22.1,6.7,31.3c6.5,9.2,16.1,15.2,27.1,16.9c21.8,3.3,42.2-11,46.5-32.5c2.1-10.6-0.1-21.5-6.3-30.7
			c-6.1-9.1-15.4-15.3-25.9-17.3c-7.3-1.4-14.4-0.9-21.3,1.5c-0.9,0.3-1.2,0.2-1.6-0.3c-1.4-1.7-2.8-3.3-4.2-4.8
			c-0.3-0.3-0.5-0.6-0.8-0.9c21.7-10,47.7-2.3,60.8,18c13.7,21.2,9.2,49.1-10.5,64.8C139.6,187,111.5,185.3,94,167.3z M171.5,105.4
			c-14-21.6-41.7-29.4-64.6-18.2l-1.2,0.6l0.9,1c0.5,0.6,1.1,1.2,1.6,1.9c1.4,1.5,2.8,3.1,4.2,4.8c1.3,1.5,2.6,1.3,3.8,0.9
			c6.5-2.3,13.3-2.8,20.2-1.5c10,1.9,18.8,7.8,24.7,16.4c5.9,8.7,8,19.1,6,29.2c-4.1,20.5-23.5,34-44.2,30.9
			c-10.5-1.6-19.6-7.3-25.8-16c-6.2-8.8-8.4-19.4-6.3-29.8c1-5,2.9-9.7,5.8-14.3l0.5-0.8l-0.7-0.6c-2.6-2.1-5.1-4.1-7.6-6.2
			l-0.8-0.7l-0.6,0.8c-12.1,16.3-14.3,44.5,5.2,64.6c9.9,10.2,23,15.4,36.3,15.4c5.6,0,11.2-0.9,16.5-2.8s10.5-4.7,15.2-8.4
			C181.1,156.5,185.8,127.5,171.5,105.4z M94,167.3c-18.4-19-16.7-45.4-5.7-61.1c2,1.6,4,3.3,6.1,5c-2.8,4.5-4.6,9.2-5.6,14.2
			c-2.2,11,0.2,22.1,6.7,31.3c6.5,9.2,16.1,15.2,27.1,16.9c21.8,3.3,42.2-11,46.5-32.5c2.1-10.6-0.1-21.5-6.3-30.7
			c-6.1-9.1-15.4-15.3-25.9-17.3c-7.3-1.4-14.4-0.9-21.3,1.5c-0.9,0.3-1.2,0.2-1.6-0.3c-1.4-1.7-2.8-3.3-4.2-4.8
			c-0.3-0.3-0.5-0.6-0.8-0.9c21.7-10,47.7-2.3,60.8,18c13.7,21.2,9.2,49.1-10.5,64.8C139.6,187,111.5,185.3,94,167.3z M118.1,163.8
			l-0.6,1l1.1,0.4c3.1,1.1,6.6,1.7,10.3,1.7c9.2,0,19.4-3.8,26.5-12.7c10-12.6,9.9-30.1-0.2-42.5c-10-12.3-26.3-14.7-36.5-10.7
			l-1.1,0.4l0.6,1C130.1,122.8,130.1,143.4,118.1,163.8z M153.6,113c9.5,11.7,9.6,28.2,0.2,40c-9,11.3-23.3,13.9-33.3,10.7
			c11.5-20.3,11.6-40.9,0-61.2C130,99.3,144.5,101.8,153.6,113z M142.7,48.3c0.4,0.5,1.1,0.8,1.8,0.8c1.6,0,3.1,0,4.8,0h5.8
			l-2.9-4.2c-1.6-2.3-3.2-4.5-4.7-6.6c-0.4-0.5-1-1-1.8-1c-2.4,0-4.7,0-7.3,0h-4.3l3,3.9C139,43.7,140.9,46,142.7,48.3z M138.4,39.4
			c2.5,0,4.8,0,7.2,0c0.1,0,0.2,0.1,0.2,0.2c1.5,2.1,3.1,4.3,4.7,6.6l0.7,1h-0.1c-2.3,0-4.5,0-6.6,0c-0.1,0-0.2-0.1-0.3-0.1
			c-1.9-2.3-3.7-4.6-5.6-7.1l-0.5-0.6H138.4z M139,74l0.7,0.3l15.2-20.1h-7.2c-3.5,0-3.9,0.3-4.9,3.6L138,72.6l-0.2,0.9l0.8,0.4
			C138.7,73.9,138.9,74,139,74z M147.7,56.2h3.1l-9.5,12.6l3.3-10.4c0.4-1.1,0.6-1.9,0.8-2.1C145.8,56.2,146.6,56.2,147.7,56.2z
			 M125.6,74.6l0.8,2.4l0.7,0.1c0.8,0.1,1.4,0.1,1.9,0.1c2.1,0,2.5-0.7,3.4-3.4c0.3-1,0.6-2,1-3c0.3-1,0.6-2,1-3
			c1.2-3.6,2.3-7.1,3.4-10.8l0.9-2.8h-19.5l4.6,14.4C124.3,70.7,125,72.7,125.6,74.6z M135.9,56.3l-0.1,0.2
			c-1.2,3.6-2.3,7.2-3.4,10.8c-0.3,1-0.7,2-1,3c-0.3,1-0.7,2-1,3c-0.3,1-0.6,1.8-0.8,2c-0.2,0.1-0.9,0.1-1.7,0l-0.4-1.1
			c-0.6-2-1.3-4-1.9-6l-3.8-11.8H135.9z M120.9,49h16l-2.4-3.1c-1.3-1.6-2.5-3.1-3.6-4.6c-0.2-0.3-0.5-0.6-0.8-0.9l-1.2-1.4
			l-1.2,1.6c-1.8,2.3-3.6,4.5-5.4,6.9L120.9,49z M129.2,42.5c1.2,1.5,2.3,2.9,3.5,4.5H125c1.3-1.6,2.6-3.3,3.9-4.9
			C129,42.3,129.1,42.4,129.2,42.5z M108.9,49.2c1.4,0,2.7,0,4,0c0.3,0,1.4-0.1,2-0.8c1.9-2.3,3.8-4.7,5.7-7.2l3-3.8h-4.1
			c-2.6,0-5,0-7.4,0c-0.5,0-1.3,0.3-1.7,0.8c-1.7,2.4-3.4,4.8-5.2,7.4l-2.6,3.6h4.3C107.6,49.2,108.2,49.2,108.9,49.2z M106.8,46.7
			c1.8-2.5,3.5-4.9,5.2-7.3c0,0,0.1,0,0.1,0c2.4,0,4.8,0,7.4,0l-0.5,0.6c-2,2.5-3.8,4.9-5.6,7.1c-0.1,0-0.3,0.1-0.5,0.1
			c-1.9,0-3.9,0-6,0h-0.4L106.8,46.7z M102.9,54.3l1.2,1.6c4.6,6.2,9.1,12,13.5,17.9l0.6,0.7l1.7-1l-6.2-19.2H102.9z M106.9,56.3
			h5.4l4,12.5C113.2,64.7,110.1,60.5,106.9,56.3z M91.7,175.5c-1.3-1.5-2.6-3-3.9-4.6c-1.4-1.7-2.8-1.4-4-1
			c-6.5,2.3-13.3,2.8-20.2,1.4c-16-3.2-28.1-15.8-30.8-32c-2.5-15.2,4.9-31.4,18-39.2c11.8-7,23.9-7.8,36-2.4
			c14,6.3,21.8,17.4,23.1,33.1c0.7,7.9-1.2,15.6-5.6,22.8c-0.4,0.7-0.5,2.3,0.2,3c1.7,1.5,3.5,3,5.3,4.5l2.4,2l0.6-0.9
			c14.3-19.9,11.7-48-6.1-65.4c-9.5-9.3-22.1-14.4-35.4-14.5h-0.1c-13.3,0-25.8,5.1-35.4,14.3c-9.1,8.8-14.6,20.7-15.4,33.4
			c-0.1,1.1-0.1,2.1-0.1,3.2c0,11.7,4,23,11.5,32.1c10.7,13,25.8,18.7,39.7,18.7c7.8,0,15.3-1.8,21.4-5.2l1.1-0.6l-0.8-0.9
			C92.7,176.7,92.2,176.1,91.7,175.5z M33.4,164c-16-19.5-14.3-48.5,3.8-66c19.2-18.6,49.1-18.5,68.1,0.1
			c16.8,16.4,19.5,42.9,6.5,61.9l-0.7-0.6c-1.7-1.4-3.5-2.9-5.1-4.3c0-0.2,0-0.5,0-0.6c4.6-7.7,6.6-15.8,5.9-24
			c-1.4-16.5-9.5-28.2-24.3-34.8c-12.8-5.7-25.5-4.9-37.8,2.5c-13.9,8.3-21.7,25.2-19,41.3c2.9,17,15.6,30.3,32.4,33.7
			c7.3,1.5,14.4,1,21.3-1.5c0.9-0.3,1.2-0.2,1.7,0.4c1.3,1.6,2.7,3.2,4,4.7c0.3,0.3,0.5,0.6,0.8,0.9C74.6,185.9,49,183.1,33.4,164z
			 M100.7,117l-1-1.5l-0.8,1.6c-5.2,10.7-5.2,21.1,0,31.9l0.8,1.6l1-1.6C106.4,140,106.3,125.6,100.7,117z M100,146.4
			c-3.9-9-3.9-17.8,0-26.7C103.5,126.6,104.2,138,100,146.4z M76.7,113c0.4-1.1,1.7-4.8,3-6.6c0,0,0.1-0.1,0.1-0.2
			c0.1-0.1,0.1-0.2,0.2-0.2l0.3-0.5c0.4-0.7,0.8-1.4,1.2-2c0.2-0.3,0.4-0.7,0.6-1l0.6-1l-1.1-0.4c-13.6-5-30.2,0.7-38.6,13.4
			c-8.8,13.2-7.2,30.6,3.9,42.3c6.8,7.1,16.3,10.3,24.5,10.3c3.7,0,7.3-0.7,10.2-1.9l1.1-0.5l-0.6-1c-9.8-15.9-11.6-32.4-5.4-50.3
			L76.7,113z M74.7,112.5c0,0.1,0,0.1-0.1,0.2l0,0.1c-6.1,18.1-4.5,34.7,5.1,50.8c-8.8,3.1-22.5,0.9-31.4-8.4
			c-10.4-11-11.9-27.3-3.7-39.8c6-9,16.4-14.3,26.6-14.3c2.9,0,5.8,0.4,8.5,1.3c0,0,0,0,0,0c-0.4,0.7-0.7,1.3-1.1,1.9l-0.3,0.4
			c0,0.1-0.1,0.1-0.1,0.2l-0.1,0.2c-1.4,1.9-2.8,5.6-3.3,7.2C74.7,112.4,74.7,112.5,74.7,112.5z M171.5,105.4
			c-14-21.6-41.7-29.4-64.6-18.2l-1.2,0.6l0.9,1c0.5,0.6,1.1,1.2,1.6,1.9c1.4,1.5,2.8,3.1,4.2,4.8c1.3,1.5,2.6,1.3,3.8,0.9
			c6.5-2.3,13.3-2.8,20.2-1.5c10,1.9,18.8,7.8,24.7,16.4c5.9,8.7,8,19.1,6,29.2c-4.1,20.5-23.5,34-44.2,30.9
			c-10.5-1.6-19.6-7.3-25.8-16c-6.2-8.8-8.4-19.4-6.3-29.8c1-5,2.9-9.7,5.8-14.3l0.5-0.8l-0.7-0.6c-2.6-2.1-5.1-4.1-7.6-6.2
			l-0.8-0.7l-0.6,0.8c-12.1,16.3-14.3,44.5,5.2,64.6c9.9,10.2,23,15.4,36.3,15.4c5.6,0,11.2-0.9,16.5-2.8s10.5-4.7,15.2-8.4
			C181.1,156.5,185.8,127.5,171.5,105.4z M94,167.3c-18.4-19-16.7-45.4-5.7-61.1c2,1.6,4,3.3,6.1,5c-2.8,4.5-4.6,9.2-5.6,14.2
			c-2.2,11,0.2,22.1,6.7,31.3c6.5,9.2,16.1,15.2,27.1,16.9c21.8,3.3,42.2-11,46.5-32.5c2.1-10.6-0.1-21.5-6.3-30.7
			c-6.1-9.1-15.4-15.3-25.9-17.3c-7.3-1.4-14.4-0.9-21.3,1.5c-0.9,0.3-1.2,0.2-1.6-0.3c-1.4-1.7-2.8-3.3-4.2-4.8
			c-0.3-0.3-0.5-0.6-0.8-0.9c21.7-10,47.7-2.3,60.8,18c13.7,21.2,9.2,49.1-10.5,64.8C139.6,187,111.5,185.3,94,167.3z M118.1,163.8
			l-0.6,1l1.1,0.4c3.1,1.1,6.6,1.7,10.3,1.7c9.2,0,19.4-3.8,26.5-12.7c10-12.6,9.9-30.1-0.2-42.5c-10-12.3-26.3-14.7-36.5-10.7
			l-1.1,0.4l0.6,1C130.1,122.8,130.1,143.4,118.1,163.8z M153.6,113c9.5,11.7,9.6,28.2,0.2,40c-9,11.3-23.3,13.9-33.3,10.7
			c11.5-20.3,11.6-40.9,0-61.2C130,99.3,144.5,101.8,153.6,113z M142.7,48.3c0.4,0.5,1.1,0.8,1.8,0.8c1.6,0,3.1,0,4.8,0h5.8
			l-2.9-4.2c-1.6-2.3-3.2-4.5-4.7-6.6c-0.4-0.5-1-1-1.8-1c-2.4,0-4.7,0-7.3,0h-4.3l3,3.9C139,43.7,140.9,46,142.7,48.3z M138.4,39.4
			c2.5,0,4.8,0,7.2,0c0.1,0,0.2,0.1,0.2,0.2c1.5,2.1,3.1,4.3,4.7,6.6l0.7,1h-0.1c-2.3,0-4.5,0-6.6,0c-0.1,0-0.2-0.1-0.3-0.1
			c-1.9-2.3-3.7-4.6-5.6-7.1l-0.5-0.6H138.4z M139,74l0.7,0.3l15.2-20.1h-7.2c-3.5,0-3.9,0.3-4.9,3.6L138,72.6l-0.2,0.9l0.8,0.4
			C138.7,73.9,138.9,74,139,74z M147.7,56.2h3.1l-9.5,12.6l3.3-10.4c0.4-1.1,0.6-1.9,0.8-2.1C145.8,56.2,146.6,56.2,147.7,56.2z
			 M125.6,74.6l0.8,2.4l0.7,0.1c0.8,0.1,1.4,0.1,1.9,0.1c2.1,0,2.5-0.7,3.4-3.4c0.3-1,0.6-2,1-3c0.3-1,0.6-2,1-3
			c1.2-3.6,2.3-7.1,3.4-10.8l0.9-2.8h-19.5l4.6,14.4C124.3,70.7,125,72.7,125.6,74.6z M135.9,56.3l-0.1,0.2
			c-1.2,3.6-2.3,7.2-3.4,10.8c-0.3,1-0.7,2-1,3c-0.3,1-0.7,2-1,3c-0.3,1-0.6,1.8-0.8,2c-0.2,0.1-0.9,0.1-1.7,0l-0.4-1.1
			c-0.6-2-1.3-4-1.9-6l-3.8-11.8H135.9z M120.9,49h16l-2.4-3.1c-1.3-1.6-2.5-3.1-3.6-4.6c-0.2-0.3-0.5-0.6-0.8-0.9l-1.2-1.4
			l-1.2,1.6c-1.8,2.3-3.6,4.5-5.4,6.9L120.9,49z M129.2,42.5c1.2,1.5,2.3,2.9,3.5,4.5H125c1.3-1.6,2.6-3.3,3.9-4.9
			C129,42.3,129.1,42.4,129.2,42.5z M108.9,49.2c1.4,0,2.7,0,4,0c0.3,0,1.4-0.1,2-0.8c1.9-2.3,3.8-4.7,5.7-7.2l3-3.8h-4.1
			c-2.6,0-5,0-7.4,0c-0.5,0-1.3,0.3-1.7,0.8c-1.7,2.4-3.4,4.8-5.2,7.4l-2.6,3.6h4.3C107.6,49.2,108.2,49.2,108.9,49.2z M106.8,46.7
			c1.8-2.5,3.5-4.9,5.2-7.3c0,0,0.1,0,0.1,0c2.4,0,4.8,0,7.4,0l-0.5,0.6c-2,2.5-3.8,4.9-5.6,7.1c-0.1,0-0.3,0.1-0.5,0.1
			c-1.9,0-3.9,0-6,0h-0.4L106.8,46.7z M102.9,54.3l1.2,1.6c4.6,6.2,9.1,12,13.5,17.9l0.6,0.7l1.7-1l-6.2-19.2H102.9z M106.9,56.3
			h5.4l4,12.5C113.2,64.7,110.1,60.5,106.9,56.3z M91.7,175.5c-1.3-1.5-2.6-3-3.9-4.6c-1.4-1.7-2.8-1.4-4-1
			c-6.5,2.3-13.3,2.8-20.2,1.4c-16-3.2-28.1-15.8-30.8-32c-2.5-15.2,4.9-31.4,18-39.2c11.8-7,23.9-7.8,36-2.4
			c14,6.3,21.8,17.4,23.1,33.1c0.7,7.9-1.2,15.6-5.6,22.8c-0.4,0.7-0.5,2.3,0.2,3c1.7,1.5,3.5,3,5.3,4.5l2.4,2l0.6-0.9
			c14.3-19.9,11.7-48-6.1-65.4c-9.5-9.3-22.1-14.4-35.4-14.5h-0.1c-13.3,0-25.8,5.1-35.4,14.3c-9.1,8.8-14.6,20.7-15.4,33.4
			c-0.1,1.1-0.1,2.1-0.1,3.2c0,11.7,4,23,11.5,32.1c10.7,13,25.8,18.7,39.7,18.7c7.8,0,15.3-1.8,21.4-5.2l1.1-0.6l-0.8-0.9
			C92.7,176.7,92.2,176.1,91.7,175.5z M33.4,164c-16-19.5-14.3-48.5,3.8-66c19.2-18.6,49.1-18.5,68.1,0.1
			c16.8,16.4,19.5,42.9,6.5,61.9l-0.7-0.6c-1.7-1.4-3.5-2.9-5.1-4.3c0-0.2,0-0.5,0-0.6c4.6-7.7,6.6-15.8,5.9-24
			c-1.4-16.5-9.5-28.2-24.3-34.8c-12.8-5.7-25.5-4.9-37.8,2.5c-13.9,8.3-21.7,25.2-19,41.3c2.9,17,15.6,30.3,32.4,33.7
			c7.3,1.5,14.4,1,21.3-1.5c0.9-0.3,1.2-0.2,1.7,0.4c1.3,1.6,2.7,3.2,4,4.7c0.3,0.3,0.5,0.6,0.8,0.9C74.6,185.9,49,183.1,33.4,164z
			 M100.7,117l-1-1.5l-0.8,1.6c-5.2,10.7-5.2,21.1,0,31.9l0.8,1.6l1-1.6C106.4,140,106.3,125.6,100.7,117z M100,146.4
			c-3.9-9-3.9-17.8,0-26.7C103.5,126.6,104.2,138,100,146.4z M76.7,113c0.4-1.1,1.7-4.8,3-6.6c0,0,0.1-0.1,0.1-0.2
			c0.1-0.1,0.1-0.2,0.2-0.2l0.3-0.5c0.4-0.7,0.8-1.4,1.2-2c0.2-0.3,0.4-0.7,0.6-1l0.6-1l-1.1-0.4c-13.6-5-30.2,0.7-38.6,13.4
			c-8.8,13.2-7.2,30.6,3.9,42.3c6.8,7.1,16.3,10.3,24.5,10.3c3.7,0,7.3-0.7,10.2-1.9l1.1-0.5l-0.6-1c-9.8-15.9-11.6-32.4-5.4-50.3
			L76.7,113z M74.7,112.5c0,0.1,0,0.1-0.1,0.2l0,0.1c-6.1,18.1-4.5,34.7,5.1,50.8c-8.8,3.1-22.5,0.9-31.4-8.4
			c-10.4-11-11.9-27.3-3.7-39.8c6-9,16.4-14.3,26.6-14.3c2.9,0,5.8,0.4,8.5,1.3c0,0,0,0,0,0c-0.4,0.7-0.7,1.3-1.1,1.9l-0.3,0.4
			c0,0.1-0.1,0.1-0.1,0.2l-0.1,0.2c-1.4,1.9-2.8,5.6-3.3,7.2C74.7,112.4,74.7,112.5,74.7,112.5z"/>
		<path class="st1" d="M186,124.8c-2.7-18.5-12.5-32.8-29.2-42.3c-2.6-1.5-5.4-2.6-8.1-3.8c-0.9-0.4-1.8-0.7-2.6-1.1
			c0-0.1,0.1-0.1,0.2-0.2l6.5-8.6c3.4-4.5,6.7-9,10.1-13.4c2.1-2.8,2.1-4.4,0.2-7.2c-1.4-2-2.8-4-4.2-6c-2.2-3.1-4.4-6.2-6.6-9.4
			c-1.2-1.8-2.8-2.6-4.9-2.6h0c-13.1,0-25.1,0-36.7,0c0,0,0,0,0,0c-2.2,0-3.8,0.9-5.1,2.7c-2.3,3.3-4.6,6.6-6.9,9.8
			c-1.3,1.8-2.6,3.6-3.9,5.5c-1.9,2.7-1.8,4.4,0.2,7c3.5,4.6,7,9.2,10.4,13.8l6.1,8.1c0.1,0.2,0.2,0.3,0.3,0.5
			c-0.2,0.1-0.4,0.1-0.5,0.2c-1.4,0.5-2.7,0.9-4,1.5l-0.4,0.2c-1.7,0.7-3.5,1.4-5.1,2.5c-1.1,0.7-1.9,0.7-3.4-0.1
			c-16.8-8.6-34-9.1-51.2-1.5c-11.6,5.2-20.6,13.7-26.9,25.3c-5.4,10.1-7.6,21.1-6.5,32.8c1,11.3,5.1,21.4,12.1,30.2
			c8,10.1,18.2,16.9,30.2,20c2.6,0.7,5.2,1.1,7.8,1.5c1.2,0.2,2.4,0.4,3.6,0.6l8.3,0l0.2,0c1-0.2,1.9-0.3,2.9-0.5
			c2-0.3,4.1-0.7,6.1-1.1c4.7-1,9.5-2.9,14.6-5.6c0.4-0.2,1.1-0.3,1.2-0.2c7.4,4.1,15.3,6.5,23.3,7.1c0.1,0,0.2,0.1,0.3,0.1
			c0.1,0,0.2,0.1,0.3,0.1l0.2,0h8l0.1,0c0.1,0,0.3-0.1,0.5-0.1c0.3-0.1,0.5-0.1,0.8-0.2c14.2-1.2,26.3-6.9,36.1-16.9
			c11.2-11.5,16.8-24.8,16.8-39.8C186.7,131,186.5,127.9,186,124.8z M132.6,188.9c-0.1,0-0.2,0-0.3,0.1h-7.4c0,0,0,0,0,0
			c-0.2-0.1-0.5-0.2-0.9-0.2c-7.8-0.7-15.4-3-22.5-6.9c-0.9-0.5-2.3-0.3-3.1,0.2c-4.9,2.6-9.5,4.4-14.1,5.4c-2,0.4-4,0.8-6,1.1
			c-0.9,0.2-1.9,0.3-2.8,0.5h-7.9c-1.2-0.2-2.4-0.4-3.6-0.6c-2.5-0.4-5.1-0.8-7.6-1.5c-11.6-3.1-21.4-9.6-29.2-19.4
			c-6.7-8.5-10.6-18.3-11.7-29.2c-1-11.3,1.1-21.9,6.3-31.6c6.1-11.3,14.8-19.5,26-24.5c16.6-7.4,33.2-6.9,49.5,1.4
			c1.8,0.9,3.4,1.3,5.4,0c1.5-0.9,3.2-1.6,4.8-2.3l0.4-0.2c1.3-0.5,2.5-1,3.9-1.4c0.6-0.2,1.2-0.4,1.8-0.6l1.2-0.5l-1-1.5
			c-0.3-0.4-0.6-0.8-0.8-1.2l-6.2-8.2c-3.5-4.6-7-9.2-10.4-13.8c-1.5-2-1.5-2.7-0.1-4.7c1.3-1.8,2.6-3.6,3.9-5.5
			c2.3-3.3,4.7-6.6,7-9.9c0.9-1.3,1.9-1.8,3.4-1.8c11.6,0,23.6,0,36.7,0c1.4,0,2.4,0.5,3.3,1.7c2.2,3.1,4.4,6.3,6.6,9.4
			c1.4,2,2.8,4,4.2,6c1.4,2,1.4,2.8-0.1,4.8c-3.4,4.5-6.7,9-10.1,13.4l-6.5,8.6c-0.3,0.3-0.5,0.7-0.7,1l-0.9,1.3l1.1,0.5
			c1.3,0.6,2.5,1.1,3.8,1.6c2.8,1.2,5.4,2.3,7.9,3.7c8.1,4.6,14.5,10.3,19.2,17.2c4.7,6.8,7.7,14.7,9,23.7
			c2.6,18.2-2.6,34.1-15.6,47.4c-9.4,9.6-21.1,15.1-34.8,16.3C133.3,188.8,132.9,188.8,132.6,188.9z"/>
	</g>
	<g>
		<path class="st0" d="M85.5,63.3c-1.2,0-2.3,0.1-3.5,0c-1.7-0.2-2.9-1.5-3-3.1c-0.1-1.8,0.8-3.4,2.6-3.5c2.6-0.2,5.3-0.2,8,0
			c1.6,0.1,2.7,1.8,2.6,3.4c-0.1,1.7-1.3,3-3.1,3.3c-0.2,0-0.3,0.1-0.5,0.1C87.6,63.4,86.5,63.4,85.5,63.3
			C85.5,63.4,85.5,63.3,85.5,63.3z"/>
		<path class="st1" d="M87.1,64.4c-0.3,0-0.5,0-0.8,0l-1.8,0c0,0,0,0-0.1,0c-0.8,0-1.7,0-2.5,0c-2.2-0.2-3.7-1.8-3.9-4
			c-0.2-2.5,1.3-4.4,3.5-4.6c2.6-0.2,5.4-0.2,8.2,0c2.3,0.2,3.6,2.5,3.5,4.5c-0.1,2.2-1.7,3.9-3.9,4.2c-0.2,0-0.4,0.1-0.7,0.1
			C88.1,64.4,87.6,64.4,87.1,64.4z M86.5,62.4c0.7,0,1.4,0,2.1,0c0.1,0,0.3,0,0.4,0c1.3-0.2,2.2-1.1,2.2-2.3c0.1-1-0.6-2.3-1.7-2.4
			c-2.7-0.2-5.3-0.2-7.8,0c-1.3,0.1-1.8,1.3-1.7,2.5c0.1,1.2,0.9,2.1,2.1,2.2c0.7,0.1,1.5,0.1,2.3,0c0.4,0,0.7,0,1.1,0L86.5,62.4
			L86.5,62.4z"/>
	</g>
	<g>
		<path class="st0" d="M125.4,16.6c0-1-0.1-2.1,0-3.1c0.1-2,1.6-3.5,3.4-3.5c1.8,0,3.4,1.3,3.5,3.3c0.1,2.3,0.1,4.5,0,6.8
			c-0.1,1.9-1.7,3.3-3.5,3.2c-1.9,0-3.3-1.5-3.4-3.5C125.3,18.7,125.4,17.7,125.4,16.6z"/>
		<path class="st1" d="M128.9,24.3C128.8,24.3,128.8,24.3,128.9,24.3c-2.5,0-4.3-1.9-4.5-4.4c0-0.8,0-1.5,0-2.3c0-0.3,0-0.6,0-1l1,0
			l-1,0c0-0.3,0-0.7,0-1c0-0.7,0-1.5,0-2.2c0.2-2.5,2-4.4,4.4-4.4c0,0,0,0,0.1,0c2.3,0,4.3,1.8,4.4,4.2c0.1,2.3,0.1,4.6,0,6.9
			C133.1,22.5,131.2,24.3,128.9,24.3z M128.9,11C128.8,11,128.8,11,128.9,11c-1.4,0-2.4,1.1-2.5,2.6c0,0.7,0,1.4,0,2.1
			c0,0.3,0,0.7,0,1c0,0.3,0,0.7,0,1c0,0.7,0,1.4,0,2.1c0.1,1.5,1.1,2.5,2.4,2.6c0,0,0,0,0,0c1.3,0,2.4-1,2.4-2.3
			c0.1-2.2,0.1-4.5,0-6.7C131.2,12,130.1,11,128.9,11z"/>
	</g>
	<g>
		<path class="st0" d="M172.1,63.3c-1.2,0-2.3,0.1-3.5,0c-1.8-0.2-3-1.5-3.1-3.2c-0.1-1.6,1-3.4,2.7-3.5c2.6-0.2,5.2-0.2,7.8,0
			c1.8,0.2,2.8,1.8,2.7,3.5c-0.1,1.7-1.3,3-3.1,3.2C174.4,63.4,173.3,63.3,172.1,63.3z"/>
		<path class="st1" d="M174.3,64.4c-0.4,0-0.8,0-1.1,0c-0.4,0-0.7,0-1.1,0c-0.3,0-0.7,0-1,0c-0.8,0-1.7,0-2.5,0
			c-2.2-0.2-3.9-1.9-4.1-4.1c-0.2-2,1.3-4.4,3.7-4.6c2.7-0.2,5.4-0.2,8,0c2.2,0.2,3.8,2.2,3.6,4.6c-0.1,2.2-1.8,3.9-4,4.1
			C175.2,64.4,174.7,64.4,174.3,64.4z M172.1,62.3C172.1,62.3,172.1,62.3,172.1,62.3L172.1,62.3c0.4,0,0.8,0,1.1,0
			c0.8,0,1.6,0,2.3,0c1.3-0.1,2.1-1,2.2-2.3c0.1-1.1-0.5-2.3-1.8-2.5c-2.5-0.2-5.1-0.2-7.7,0c-1.2,0.1-1.9,1.4-1.8,2.4
			c0.1,1.3,1,2.2,2.2,2.3c0.7,0.1,1.5,0.1,2.3,0C171.3,62.3,171.7,62.3,172.1,62.3z"/>
	</g>
	<g>
		<path class="st0" d="M104.2,32.1c-0.6,0.7-1.1,2-2.1,2.4c-0.9,0.4-2.6,0.5-3.4-0.1c-2-1.6-3.9-3.5-5.6-5.5c-1-1.2-0.7-3,0.3-4.2
			c1.1-1.2,2.7-1.7,3.9-0.7c2.2,1.8,4.2,4,6.2,6.1C103.9,30.4,103.9,31.1,104.2,32.1z"/>
		<path class="st1" d="M100.4,35.8c-0.9,0-1.7-0.2-2.3-0.6c-2.3-1.8-4.3-3.9-5.7-5.6c-1.3-1.5-1.2-3.9,0.4-5.5
			c1.7-1.7,3.8-2,5.3-0.8c1.9,1.5,3.5,3.3,5.2,5c0.4,0.4,0.7,0.8,1.1,1.2c0.4,0.4,0.5,1,0.6,1.5c0,0.2,0.1,0.5,0.2,0.9l0.1,0.5
			l-0.3,0.4c-0.1,0.2-0.3,0.4-0.4,0.7c-0.5,0.7-1.1,1.6-2,2.1C101.9,35.7,101.2,35.8,100.4,35.8z M96,24.5c-0.6,0-1.3,0.4-1.8,0.9
			c-0.7,0.7-1,2-0.3,2.8c1.4,1.6,3.3,3.7,5.4,5.4c0.4,0.3,1.6,0.3,2.3,0c0.4-0.2,0.8-0.8,1.1-1.3c0.1-0.1,0.2-0.3,0.3-0.4
			c0-0.2-0.1-0.4-0.1-0.5c0-0.2-0.1-0.5-0.1-0.6c-0.3-0.3-0.7-0.7-1.1-1.1c-1.6-1.7-3.2-3.4-5-4.8C96.6,24.6,96.3,24.5,96,24.5z"/>
	</g>
	<g>
		<path class="st0" d="M165.4,26.7c-0.4,1-0.4,1.8-0.8,2.2c-1.8,1.9-3.6,3.8-5.5,5.5c-1.2,1.1-3.2,0.7-4.3-0.4
			c-1.1-1.1-1.5-3.1-0.4-4.3c1.7-2,3.5-3.9,5.6-5.5c0.7-0.6,2.4-0.5,3.4-0.1C164.2,24.6,164.8,25.9,165.4,26.7z"/>
		<path class="st1" d="M157.2,36c-1.1,0-2.3-0.5-3.2-1.3c-1.6-1.6-1.8-4.1-0.4-5.7c1.5-1.7,3.4-3.8,5.7-5.6c1.2-0.9,3.3-0.7,4.4-0.2
			c0.9,0.4,1.5,1.3,2,2.1c0.2,0.3,0.3,0.5,0.5,0.7l0.3,0.4l-0.2,0.5c-0.1,0.3-0.2,0.6-0.3,0.9c-0.2,0.6-0.3,1.2-0.7,1.6
			c-1.8,1.9-3.6,3.9-5.6,5.6C159,35.8,158.1,36,157.2,36z M161.5,24.8c-0.4,0-0.8,0.1-1,0.2c-2.1,1.7-4,3.7-5.4,5.3
			c-0.7,0.9-0.4,2.2,0.4,2.9c0.8,0.8,2.1,1.1,2.9,0.4c1.9-1.7,3.7-3.6,5.4-5.4c0.1-0.1,0.2-0.5,0.3-0.8c0-0.2,0.1-0.3,0.2-0.5
			c-0.1-0.1-0.2-0.3-0.3-0.4c-0.3-0.5-0.7-1.2-1.1-1.3C162.5,24.9,162,24.8,161.5,24.8z"/>
	</g>
</g>
</svg>
