<?xml version="1.0" encoding="utf-8"?>
<!-- Generator: Adobe Illustrator 24.0.2, SVG Export Plug-In . SVG Version: 6.00 Build 0)  -->
<svg version="1.1" id="Capa_1" xmlns="http://www.w3.org/2000/svg" xmlns:xlink="http://www.w3.org/1999/xlink" x="0px" y="0px"
	 viewBox="0 0 100 100" style="enable-background:new 0 0 100 100;" xml:space="preserve">
<style type="text/css">
	.st0{fill:#FF3F5B;}
</style>
<g>
	<path class="st0" d="M25.3,99.5c-0.9-0.3-1.9-0.5-2.8-1c-3-1.5-4.9-4-5.1-7.4c-0.4-6.3-0.7-12.5-1-18.8c-0.5-10.3-1-20.6-1.5-31
		c-0.1-1.3-0.1-2.6-0.2-4c0-0.8,0.3-1.3,1.2-1.3c0.2,0,0.4,0,0.6,0c22.4,0,44.7,0,67.1,0c1.6,0,1.8,0.2,1.7,1.8
		c-0.4,7.3-0.7,14.7-1,22c-0.5,10.3-0.9,20.6-1.5,30.9c-0.3,4.5-3.2,7.6-7.6,8.5c-0.1,0-0.2,0.1-0.3,0.2
		C58.3,99.5,41.8,99.5,25.3,99.5z M31.5,63.9c0,2.3,0,4.6,0,7c0,4.4,0,8.8,0,13.1c0,1.6,1.2,2.9,2.8,3.1c1.6,0.2,3-0.9,3.3-2.5
		c0.1-0.4,0.1-0.8,0.1-1.2c0-13,0-26,0-38.9c0-0.3,0-0.6,0-0.9c-0.1-1.3-0.8-2.2-2-2.6c-2.1-0.8-4.2,0.7-4.2,3.1
		C31.4,50.7,31.5,57.3,31.5,63.9z M46.9,63.8c0,2.7,0,5.5,0,8.2c0,4,0,8,0,12c0,1.6,1.2,2.9,2.8,3.1c1.6,0.2,3-0.9,3.3-2.5
		c0.1-0.4,0.1-0.8,0.1-1.2c0-13,0-26,0-38.9c0-0.3,0-0.6,0-0.9c-0.1-1.3-0.8-2.2-2-2.6c-2.1-0.8-4.2,0.7-4.2,3.1
		C46.9,50.6,46.9,57.2,46.9,63.8z M62.4,63.8c0,2.7,0,5.5,0,8.2c0,4,0,8,0,12c0,1.6,1.2,2.9,2.8,3.1c1.6,0.2,3-0.9,3.3-2.5
		c0.1-0.4,0.1-0.8,0.1-1.2c0-13,0-26,0-38.9c0-0.3,0-0.6,0-0.9c-0.1-1.3-0.8-2.2-2-2.6c-2.1-0.8-4.2,0.7-4.2,3.1
		C62.4,50.6,62.4,57.2,62.4,63.8z"/>
	<path class="st0" d="M34.5,12.9c0.1-1.7,0-3.2,0.3-4.8c0.7-4.2,4.4-7.5,8.7-7.6c4.4-0.1,8.8-0.1,13.2,0c4.7,0.1,8.7,4.1,8.8,8.8
		c0,1.1,0,2.2,0,3.5c0.4,0,0.7,0,1.1,0c5.2,0,10.4,0,15.6,0c4.8,0,8.1,3.3,8.1,8.1c0,1.9,0,3.7,0,5.6c0,2-1.3,3.3-3.3,3.3
		c-24.6,0-49.2,0-73.8,0c-2,0-3.3-1.3-3.3-3.3c0-2.4-0.1-4.9,0.2-7.3c0.5-3.8,3.7-6.4,7.6-6.4c5.3,0,10.6,0,15.8,0
		C33.7,12.9,34.1,12.9,34.5,12.9z M40.7,12.8c6.2,0,12.4,0,18.5,0c0-1.1,0-2.2,0-3.2c-0.1-1.6-1.4-2.8-3-2.9c-4.2,0-8.4,0-12.6,0
		c-1.6,0-2.9,1.3-3,2.9C40.7,10.6,40.7,11.7,40.7,12.8z"/>
</g>
</svg>
