<?xml version="1.0" encoding="utf-8"?>
<!-- Generator: Adobe Illustrator 24.0.2, SVG Export Plug-In . SVG Version: 6.00 Build 0)  -->
<svg version="1.1" id="Capa_1" xmlns="http://www.w3.org/2000/svg" xmlns:xlink="http://www.w3.org/1999/xlink" x="0px" y="0px"
	 viewBox="0 0 150 150" style="enable-background:new 0 0 150 150;" xml:space="preserve">
<style type="text/css">
	.st0{fill:#2DCA6E;}
	.st1{fill:#FEFEFE;}
</style>
<circle class="st0" cx="75" cy="75" r="72.5"/>
<path class="st1" d="M115.3,36.6c3.7,3.7,7.5,7.5,11.2,11.2c0.4,0.4,0.4,0.6,0,1c-4,4-7.9,8-11.9,11.9c-4,4-7.9,7.9-11.9,11.9
	c-4.1,4.1-8.3,8.3-12.4,12.4c-3.6,3.6-7.2,7.2-10.8,10.8c-4.5,4.5-9.1,9.1-13.6,13.6c-1.1,1.1-2.3,2.2-3.3,3.4c-0.6,0.6-1,0.6-1.5,0
	c-2.4-2.4-4.8-4.8-7.2-7.3c-2.6-2.6-5.2-5.2-7.8-7.8c-4-4-8-7.9-11.9-11.9c-2.7-2.7-5.5-5.4-8.2-8.2c-0.8-0.8-1.5-1.6-2.3-2.4
	c-0.4-0.3-0.3-0.5,0-0.9c2.2-2.2,4.4-4.4,6.7-6.6c1.4-1.4,2.8-2.7,4.2-4.2c0.6-0.7,1-0.4,1.5,0.1c1.2,1.2,2.4,2.4,3.6,3.6
	c4.8,4.8,9.6,9.6,14.3,14.4c2.5,2.5,4.9,4.9,7.4,7.3c0.5,0.5,0.7,0.4,1.2,0c4-4.1,8.1-8.1,12.2-12.2c3.9-3.9,7.8-7.8,11.7-11.7
	c5.1-5.1,26.4-26.7,27.4-27.6C114.1,37.2,114.4,36.5,115.3,36.6z"/>
</svg>
