<?xml version="1.0" encoding="utf-8"?>
<!-- Generator: Adobe Illustrator 24.0.2, SVG Export Plug-In . SVG Version: 6.00 Build 0)  -->
<svg version="1.1" id="Capa_1" xmlns="http://www.w3.org/2000/svg" xmlns:xlink="http://www.w3.org/1999/xlink" x="0px" y="0px"
	 viewBox="0 0 150 150" style="enable-background:new 0 0 150 150;" xml:space="preserve">
<style type="text/css">
	.st0{fill:#C1272D;}
	.st1{fill:#FFFFFF;}
</style>
<circle class="st0" cx="75" cy="75" r="72.5"/>
<g>
	<path class="st1" d="M32,102.7c2.1-2.4,23.1-24.9,26.5-28.7c-5.9-6.4-22.2-24.6-23.9-26.5l19.8-18c5,6.4,18.5,23.8,21.7,27.6
		c3.1-3.8,18-21.6,22.9-27.6l18.5,17.1c-2.8,3-23,22.9-26,26.2c4.2,4.4,24.4,26.5,26.6,28.9l-19.7,18.4
		c-3.8-4.6-20.5-25.2-24.5-30.1c-2.5,2.9-21.6,27.3-24.2,30.3L32,102.7z"/>
</g>
</svg>
