<?xml version="1.0" encoding="utf-8"?>
<!-- Generator: Adobe Illustrator 24.0.2, SVG Export Plug-In . SVG Version: 6.00 Build 0)  -->
<svg version="1.1" id="Capa_1" xmlns="http://www.w3.org/2000/svg" xmlns:xlink="http://www.w3.org/1999/xlink" x="0px" y="0px"
	 viewBox="0 0 200 200" style="enable-background:new 0 0 200 200;" xml:space="preserve">
<style type="text/css">
	.st0{fill:#5A7A62;}
</style>
<g>
	<path class="st0" d="M11.6,194.9c-1.4-1-2-2.2-1.4-3.8c0.6-1.6,1.9-1.9,3.5-1.9c4.1,0,8.1-0.1,12.2,0c1.8,0.1,2.3-0.5,2.3-2.3
		c-0.2-16.1-0.2-32.2-0.4-48.3c0-3.7,1.3-6.3,4.5-8c1.7-0.9,3.4-2,5.1-3c1.7-0.9,3.3-0.5,4.2,1c0.9,1.5,0.4,3-1.2,4.1
		c-1.7,1.1-3.4,2.1-5.1,3c-1,0.5-1.4,1.2-1.4,2.4c0.2,16.4-0.1,32.8,0.3,49.3c0,1.4,0.6,1.8,1.9,1.8c8.4,0,16.8,0,25.1,0
		c1.4,0,1.8-0.5,1.8-1.9c0-22,0-44.1,0-66.1c0-1.8-0.5-1.7-1.8-0.9c-3.7,2.2-7.4,4.5-11.1,6.6c-1.7,1-3.3,0.5-4.2-0.9
		c-0.8-1.4-0.4-3.1,1.2-4.2c0.5-0.3,0.9-0.6,1.4-0.9c4.2-2.5,8.3-5,12.6-7.4c1.4-0.8,2-1.7,1.9-3.4c-0.1-6.7,0-13.5-0.1-20.2
		c0-3.2,1.1-5.6,3.7-7.4c3.2-2.3,6.3-4.7,9.6-6.9c1.5-1,1.9-2.1,1.9-3.8c-0.1-5.4,0-10.7-0.1-16.1c0-3.3,1.1-5.8,3.9-7.7
		c4.6-3.2,9.1-6.6,13.6-9.9c0.9-0.7,1.4-1.4,1.4-2.6c-0.1-4.4-0.1-8.8,0-13.2c0-1.5-0.5-2-2-1.9c-1.4,0.1-2.8,0.1-4.2,0
		c-1.8-0.1-3-1.3-3-2.9c-0.1-1.5,1-2.8,2.7-3c1.6-0.2,3.3-0.1,5-0.1c1.1,0,1.6-0.4,1.5-1.5c0-1.2,0.1-2.3,0-3.5
		c-0.1-1.6,0.3-3,1.6-4.2c1,0,2,0,3,0c1.2,1.1,1.7,2.5,1.6,4.2c-0.1,1,0.1,2.1,0,3.1c-0.1,1.5,0.5,2,1.9,1.9c1.2-0.1,2.5,0,3.7,0
		c2.2,0.1,3.7,1.4,3.6,3.2c-0.1,1.7-1.4,2.8-3.6,2.9c-1.4,0-2.7,0-4.1,0c-1.1,0-1.5,0.5-1.5,1.6c0,4.6,0,9.3,0,13.9
		c0,1.1,0.6,1.6,1.4,2.2c4.6,3.3,9.1,6.7,13.8,10c2.5,1.8,3.7,4.2,3.7,7.3c0,5.7,0,11.4,0,17c0,1.3,0.4,2.2,1.5,2.9
		c3.4,2.4,6.8,5,10.2,7.4c2.4,1.7,3.5,3.9,3.5,6.8c0,1.4,0.1,2.8-0.1,4.3c-0.2,2-1.4,3.3-3.1,3.2c-1.7-0.1-3.1-1.4-2.8-3.4
		c0.6-4.1-1.3-6.4-4.5-8.7c-8.4-5.8-16.5-11.9-24.7-17.9c-1.3-1-2.3-1-3.6,0c-9.1,6.7-18.3,13.4-27.5,20c-1.2,0.9-1.7,1.9-1.7,3.4
		c0,32.2,0,64.3,0,96.5c0,1.7,0.4,2.4,2.3,2.3c3.8-0.1,7.5-0.1,11.3,0c1.7,0,2.2-0.4,2.2-2.2c-0.1-7.9,0-15.8,0-23.7
		c0-8.2,3.2-14.8,9.4-20.1c1-0.9,2-1.8,3.1-2.6c1.5-1.2,3.2-1.3,4.8-0.2c6.9,4.8,11.9,10.9,13,19.6c0.2,1.2,0.2,2.3,0.2,3.5
		c0,7.8,0.1,15.7,0,23.5c0,1.7,0.5,2.2,2.2,2.2c3.8-0.1,7.5-0.1,11.3,0c1.8,0.1,2.3-0.6,2.3-2.3c0-26.5,0-53,0-79.5c0-0.7,0-1.4,0-2
		c0.1-1.8,1.2-3.1,2.8-3.2c1.6-0.1,3,1.1,3.2,3c0.1,1.6,0.1,3.2,0.1,4.8c0,1.2,0.4,1.9,1.4,2.5c9.7,6,19.4,12,29.2,17.9
		c3.3,2,4.7,4.5,4.7,8.3c-0.2,9.6,0,19.3-0.2,28.9c-0.1,6.5-0.1,13-0.2,19.4c0,1.6,0.5,2.2,2.1,2.1c4.1-0.1,8.3,0,12.4,0
		c1.5,0,2.9,0.2,3.5,1.8c0.6,1.6-0.1,2.9-1.4,3.9C129.5,194.9,70.5,194.9,11.6,194.9z M137,153.8c0,11,0,22.1,0,33.1
		c0,1.7,0.5,2.2,2.2,2.2c8.2-0.1,16.4-0.1,24.6,0c1.3,0,2.1-0.2,2.1-1.8c0-2.8,0.2-5.5,0.2-8.3c0.1-13.5,0.1-27,0.1-40.5
		c0-1.4-0.4-2.2-1.7-3c-8.6-5.3-17.2-10.6-25.8-15.9c-0.4-0.3-0.9-0.9-1.5-0.5c-0.5,0.3-0.2,1-0.2,1.6
		C137,131.8,137,142.8,137,153.8z M90.7,174.1c0,4.4,0,8.8,0,13.1c0,1.5,0.5,2,2.1,2c4.8-0.1,9.6-0.1,14.4,0c1.6,0,2.1-0.5,2.1-2.1
		c-0.1-8,0-15.9,0-23.9c0-6.9-3.2-12.1-8.5-16.2c-0.7-0.6-1.3-0.5-1.9,0.1c-5.2,4.2-8.2,9.4-8.1,16.3
		C90.8,166.9,90.7,170.5,90.7,174.1z M115.8,61.5c0-2.1,0-4.2,0-6.3c0-1-0.3-1.7-1.2-2.3c-4.5-3.2-9-6.5-13.4-9.8
		c-0.9-0.7-1.6-0.6-2.4,0c-4.4,3.3-8.8,6.5-13.3,9.7c-0.9,0.6-1.3,1.3-1.3,2.5c0,4.2,0,8.4,0,12.6c0,0.5-0.2,1.1,0.3,1.3
		c0.5,0.2,0.9-0.3,1.3-0.6c3-2.2,6.1-4.4,9.1-6.6c4-2.9,6.3-2.9,10.2,0c3.1,2.2,6.2,4.5,9.3,6.8c0.3,0.2,0.7,0.7,1.1,0.4
		c0.5-0.2,0.3-0.8,0.3-1.2C115.8,65.8,115.8,63.7,115.8,61.5z"/>
	<path class="st0" d="M115.2,108c0,8.6-6.7,15.3-15.4,15.4c-8.2,0.1-15.2-7.1-15.2-15.5c0-8.3,7-15.4,15.1-15.3
		C108.5,92.7,115.2,99.4,115.2,108z M109.2,107.9c0-5.2-4.1-9.3-9.2-9.3c-5.3,0-9.2,4-9.2,9.5c0,5.4,4,9.3,9.4,9.2
		C105.3,117.3,109.3,113.2,109.2,107.9z"/>
</g>
</svg>
