<?xml version="1.0" encoding="utf-8"?>
<!-- Generator: Adobe Illustrator 24.0.2, SVG Export Plug-In . SVG Version: 6.00 Build 0)  -->
<svg version="1.1" id="Capa_1" xmlns="http://www.w3.org/2000/svg" xmlns:xlink="http://www.w3.org/1999/xlink" x="0px" y="0px"
	 viewBox="0 0 80 80" style="enable-background:new 0 0 80 80;" xml:space="preserve">
<style type="text/css">
	.st0{fill:#5A7A62;}
</style>
<g>
	<path class="st0" d="M78,42.6c-0.2,1.8-0.4,3.7-0.8,5.5c-0.5,2.3-1.2,4.5-2.2,6.5c-0.4,0.8-1.2,1.1-1.8,0.6c-0.5-0.4-0.6-1-0.3-1.6
		c1.2-2.6,2-5.3,2.4-8.1c1-7,0.6-13.8-2.3-20.4c-0.2-0.5-0.4-1,0-1.6c0.3-0.4,0.7-0.5,1.1-0.5c0.6,0.1,0.8,0.5,1.1,1
		c1.3,2.8,2.1,5.7,2.5,8.7c0.2,1,0.3,2,0.4,3C78,38,78,40.3,78,42.6z"/>
	<path class="st0" d="M12.6,39.2c-0.2-13.6,9.5-25.6,22.8-28c15.1-2.7,29.6,8,31.8,23.7C68.5,44,66,52,59.9,58.8
		c-0.2,0.2-0.4,0.4-0.7,0.6c-0.5,0.3-1,0.2-1.4-0.3c-0.4-0.4-0.4-0.9-0.1-1.4c0.2-0.3,0.4-0.6,0.7-0.8c4.1-4.5,6.3-9.8,6.8-16
		c0.9-12-6.5-22.8-17.2-26.4C33.3,9.8,18.2,19,15.4,34.3C13,47.1,20,59.6,32,63.7c7.5,2.6,14.7,1.7,21.4-2.6
		c0.1-0.1,0.2-0.1,0.3-0.2c0.9-0.5,1.5-0.4,1.9,0.2c0.4,0.6,0.1,1.3-0.7,1.8c-1.3,0.9-2.6,1.6-4,2.2c-10.5,4.7-23,2.1-30.9-6.5
		c-4.2-4.6-6.7-10.1-7.4-16.4c0-0.3-0.1-0.6-0.1-0.9C12.6,40.7,12.6,39.9,12.6,39.2z"/>
	<path class="st0" d="M40.1,19.5c-3.3,0-6.5,0.8-9.4,2.5c-0.5,0.3-1,0.4-1.5,0.1c-0.4-0.3-0.5-0.7-0.5-1.2c0.1-0.5,0.4-0.7,0.8-1
		c2.5-1.4,5.1-2.4,7.9-2.7c6-0.7,11.5,0.9,16.2,4.8c4.7,4,7.3,9.1,7.9,15.4c1,11.3-6.8,21.8-18,23.7c-11.6,2-22.8-6.3-24.6-18.2
		c-1.1-7.4,0.9-13.8,5.9-19.2c0.3-0.4,0.7-0.7,1.2-0.6c0.4,0.1,0.8,0.3,1,0.8c0.2,0.5,0,1-0.3,1.4c-0.8,0.8-1.5,1.7-2.2,2.6
		C16.3,39.6,23,56.2,36.9,58.6c10.5,1.8,20.4-5.6,22-16.5C60.6,31.3,53,21,42.5,19.7C41.7,19.6,40.9,19.6,40.1,19.5z"/>
	<path class="st0" d="M49.1,35.5c0,1.5,0,2.9,0,4.4c0.1,3.7-4,5.4-6.4,4.5c-1.9-0.7-2.6-2.7-1.6-4.5c0.9-1.6,3-2.8,4.8-2.5
		c0.7,0.1,0.8-0.1,0.8-0.8c0-1.5,0-1.5-1.3-1.2c-2.5,0.5-5,0.9-7.5,1.4c-0.7,0.1-0.9,0.4-0.9,1.1c0,2.2,0,4.4,0,6.6
		c0,2.7-1.8,4.7-4.4,4.9c-0.4,0-0.8,0-1.3,0c-2.6-0.5-3.6-3.2-1.8-5.3c1.1-1.3,2.5-2,4.2-1.9c0.7,0,0.9-0.2,0.9-0.9
		c0-2.6,0-5.2,0-7.8c0-2,0.6-2.8,2.5-3.1c3.1-0.6,6.2-1.1,9.3-1.7c1.7-0.3,2.7,0.5,2.7,2.3C49.1,32.4,49.1,33.9,49.1,35.5
		C49.1,35.5,49.1,35.5,49.1,35.5z M46.7,31.8c0.1-0.6-0.1-0.9-0.8-0.7c-0.6,0.2-1.3,0.2-2,0.4c-2.2,0.4-4.3,0.8-6.5,1.2
		c-0.8,0.1-0.4,0.8-0.5,1.2c0,0.5,0.4,0.4,0.7,0.3c2.8-0.5,5.5-1,8.3-1.5C46.5,32.6,46.8,32.4,46.7,31.8z M44.2,42.1
		c0.8-0.1,1.6-0.4,2.1-1.1c0.5-0.6,0.3-1.1-0.5-1.2c-0.9-0.1-1.6,0.2-2.3,0.7c-0.4,0.3-0.7,0.6-0.5,1.2
		C43.3,42.1,43.8,42.1,44.2,42.1z M32.1,46.8c0.9,0,1.7-0.4,2.2-1.1c0.4-0.5,0.2-1-0.4-1.2c-0.9-0.2-1.6,0.1-2.3,0.6
		c-0.4,0.3-0.8,0.7-0.6,1.2C31.2,46.9,31.7,46.8,32.1,46.8z"/>
	<path class="st0" d="M64.1,66.8c0-1.1,0-2.2,0-3.3c0-1.6,0.7-2.4,2.2-2.8c1.9-0.5,3.7-1,5.6-1.5c1.5-0.4,2.5,0.4,2.5,2
		c0,0.6,0,1.1,0,1.7c0,1.6-0.6,2.4-2.1,2.8c-1.7,0.5-3.3,0.9-5,1.4c-0.6,0.1-0.8,0.4-0.8,1c0,2,0,4,0,6c0,2.2-1.5,3.7-3.8,3.9
		c-1.9,0.2-3.8-1.3-4.1-3.2c-0.2-1.4,0.4-2.5,1.5-3.3c0.9-0.6,1.9-0.9,3-0.7c0.9,0.2,0.9,0.1,0.9-0.8C64.1,68.9,64.1,67.8,64.1,66.8
		C64.1,66.8,64.1,66.8,64.1,66.8z M66.5,63.8c0,0.9,0,0.9,0.8,0.7c0.5-0.1,0.9-0.3,1.4-0.4c0.9-0.3,1.9-0.5,2.8-0.8
		c0.7-0.2,0.5-0.8,0.4-1.3c-0.1-0.6-0.5-0.3-0.8-0.2c-1.3,0.3-2.7,0.7-4,1.1C66.6,63.1,66.4,63.3,66.5,63.8z M62.5,75.5
		c0.8,0,1.5-0.5,1.5-1.2c0-0.6-0.7-1.2-1.5-1.2c-0.9,0-1.6,0.6-1.5,1.2C61,75,61.7,75.5,62.5,75.5z"/>
	<path class="st0" d="M2,39.8c0-5.7,0.7-10.5,2.7-15.2c0.1-0.3,0.3-0.7,0.4-1c0.4-0.7,1-0.9,1.6-0.6c0.6,0.3,0.8,0.9,0.5,1.6
		c-0.9,1.9-1.6,3.8-2,5.8C3.8,37.9,4,45.1,6.7,52.2C6.8,52.6,7,53,7.2,53.5c0.4,0.8,0.2,1.5-0.5,1.8c-0.6,0.3-1.3,0.1-1.7-0.7
		c-1.2-2.5-2-5.1-2.5-7.8C2.2,44.2,1.9,41.7,2,39.8z"/>
	<path class="st0" d="M19.4,8.6c-0.1,0.5-0.3,1-0.8,1.3c-0.5,0.3-1,0.6-1.6,0.8c-1,0.4-1.6,1.1-2,2.1c-0.2,0.5-0.4,1-0.7,1.4
		c-0.7,1.2-1.9,1.2-2.6,0c-0.3-0.5-0.6-1.1-0.8-1.6c-0.4-0.9-1-1.5-1.9-1.9c-0.4-0.2-0.8-0.4-1.3-0.6C7.2,9.7,6.7,9.3,6.7,8.5
		c0-0.7,0.5-1.1,1.1-1.4c0.6-0.3,1.2-0.7,1.9-1c0.5-0.2,0.8-0.5,1-1c0.3-0.7,0.7-1.4,1-2.1c0.3-0.6,0.7-1,1.4-1c0.6,0,1.1,0.4,1.3,1
		c0.7,2.1,2.1,3.5,4.1,4.2C19.1,7.4,19.4,8,19.4,8.6z M13,5.9c-0.1,0.1-0.2,0.2-0.2,0.3c-0.4,1-1,1.7-2,2.1
		c-0.5,0.2-0.2,0.5,0.1,0.6c0.9,0.4,1.5,1,1.9,1.9c0.2,0.5,0.4,0.5,0.6,0c0.3-0.9,0.9-1.6,1.9-1.9c0.4-0.2,0.6-0.4,0-0.6
		c-0.9-0.4-1.6-1-1.9-2C13.3,6.1,13.2,6,13,5.9z"/>
	<path class="st0" d="M6.9,39.2c0.1-2.8,0.5-5.6,1.7-8.1c0.4-0.8,0.9-1.1,1.5-0.9c0.7,0.2,1.1,1,0.7,1.8c-0.8,1.7-1.2,3.4-1.3,5.3
		c-0.3,3,0,6,1.2,8.8c0.5,1.1,0.3,1.8-0.4,2.2c-0.7,0.3-1.3-0.1-1.8-1.2C7.4,44.5,7,41.9,6.9,39.2z"/>
	<path class="st0" d="M70.7,39.1c0-2.4-0.4-4.8-1.4-7.1c-0.4-0.8-0.1-1.5,0.5-1.8c0.6-0.3,1.3,0,1.6,0.8c0.9,1.8,1.3,3.7,1.5,5.7
		c0.4,3.4,0,6.6-1.1,9.8c-0.1,0.3-0.2,0.6-0.4,0.9c-0.4,0.8-1,1.1-1.7,0.8c-0.6-0.3-0.8-1-0.5-1.8C70.3,44.1,70.7,41.7,70.7,39.1z"
		/>
	<path class="st0" d="M65.4,14.1c0,0.3-0.1,0.5-0.1,0.8c-0.1,0.6-0.6,1-1.2,0.9c-0.6,0-1.1-0.4-1.1-1.1c0-0.4,0-0.8,0-1.1
		c0-0.8,0.5-1.3,1.1-1.3c0.6,0,1.1,0.4,1.2,1.2C65.4,13.6,65.4,13.8,65.4,14.1z"/>
	<path class="st0" d="M63,7.8c0-1.3,0.4-1.8,1.3-1.7c0.8,0.1,1.1,0.7,1.1,1.8c0,1.1-0.5,1.7-1.2,1.7C63.4,9.6,63,9,63,7.8z"/>
	<path class="st0" d="M12.9,68.7c-0.2,0-0.4,0-0.6,0c-0.7-0.1-1.1-0.6-1.1-1.2c0-0.7,0.4-1.1,1-1.2c0.4-0.1,0.9-0.1,1.3,0
		c0.7,0.1,1.1,0.6,1.1,1.3c0,0.7-0.5,1.1-1.2,1.2C13.2,68.7,13,68.7,12.9,68.7C12.9,68.7,12.9,68.7,12.9,68.7z"/>
	<path class="st0" d="M18.9,68.7c-0.2,0-0.4,0-0.7,0c-0.6-0.1-1-0.5-1.1-1.2c0-0.6,0.3-1,0.9-1.2c0.5-0.1,1-0.1,1.5,0
		c0.7,0.1,1.1,0.6,1.1,1.3c0,0.6-0.5,1-1.2,1.1C19.3,68.7,19.1,68.7,18.9,68.7C18.9,68.7,18.9,68.7,18.9,68.7z"/>
	<path class="st0" d="M17.1,64.4c0,0.2,0,0.5,0,0.7c-0.1,0.6-0.5,1-1.1,1.1c-0.6,0-1-0.3-1.2-0.9c-0.1-0.5-0.2-1.1,0-1.6
		c0.1-0.7,0.6-1.1,1.2-1.1c0.6,0,1.1,0.5,1.1,1.2C17.1,64,17.1,64.2,17.1,64.4C17.1,64.4,17.1,64.4,17.1,64.4z"/>
	<path class="st0" d="M17.1,70.6c0,0.3,0,0.5,0,0.8c-0.1,0.6-0.5,0.9-1.1,1c-0.6,0-1-0.3-1.2-0.9c-0.1-0.5-0.1-1.1,0-1.6
		c0.1-0.7,0.6-1.1,1.2-1.1c0.6,0,1,0.5,1.1,1.2C17.1,70.2,17.1,70.4,17.1,70.6C17.1,70.6,17.1,70.6,17.1,70.6z"/>
	<path class="st0" d="M61.1,12.1c-0.3,0-0.6,0-0.8-0.1c-0.6-0.1-0.9-0.5-0.9-1.1c0-0.6,0.3-1.1,0.9-1.2c0.5-0.1,1.1-0.1,1.6,0
		c0.6,0.1,1,0.6,0.9,1.2c0,0.6-0.4,1-1,1.1C61.6,12.1,61.4,12.1,61.1,12.1C61.1,12.1,61.1,12.1,61.1,12.1z"/>
	<path class="st0" d="M67.2,9.7c0.2,0,0.4,0,0.7,0c0.6,0.1,1.1,0.6,1,1.2c0,0.7-0.4,1.1-1.1,1.2c-0.4,0-0.8,0-1.2,0
		c-0.8,0-1.2-0.5-1.2-1.2c0-0.7,0.4-1.2,1.2-1.2C66.9,9.7,67,9.7,67.2,9.7C67.2,9.7,67.2,9.7,67.2,9.7z"/>
</g>
</svg>
