<?xml version="1.0" encoding="utf-8"?>
<!-- Generator: Adobe Illustrator 24.0.2, SVG Export Plug-In . SVG Version: 6.00 Build 0)  -->
<svg version="1.1" id="Capa_1" xmlns="http://www.w3.org/2000/svg" xmlns:xlink="http://www.w3.org/1999/xlink" x="0px" y="0px"
	 viewBox="0 0 150 150" style="enable-background:new 0 0 150 150;" xml:space="preserve">
<style type="text/css">
	.st0{fill:#29ABE2;}
	.st1{fill:#FFFFFF;}
</style>
<circle class="st0" cx="75" cy="75" r="72.5"/>
<g>
	<path class="st1" d="M61.1,92.2L61.2,67c0.5,0,1,0.1,1.6,0.1c0.6,0,1.4,0,2.5,0c6.5,0,11.4-1.2,14.7-3.5c3.3-2.4,4.9-5.9,4.9-10.5
		c0-3.3-1-6-2.9-8c-1.9-2-4.6-2.9-7.9-2.9c-3.1,0-5.6,0.9-7.5,2.6c-1.9,1.8-2.9,4.2-3.2,7.4H43.7v-0.8c0-8.3,2.9-14.9,8.6-19.8
		c5.7-4.9,13.5-7.4,23.1-7.4c9.4,0,16.9,2.6,22.5,7.8c5.6,5.2,8.4,12.2,8.4,20.9c0,7.7-2.1,14-6.3,18.7s-10.2,7.5-18,8.5v12.1H61.1z
		 M71.4,125.8c-3.5,0-6.5-1.2-9-3.7c-2.5-2.4-3.7-5.4-3.7-8.9c0-3.5,1.3-6.5,3.8-9c2.5-2.5,5.5-3.7,9-3.7c3.5,0,6.5,1.2,9,3.7
		c2.5,2.5,3.7,5.5,3.7,9c0,3.5-1.2,6.4-3.7,8.9C78,124.6,75,125.8,71.4,125.8z"/>
</g>
</svg>
